<mxfile host="app.diagrams.net" modified="2024-04-12T01:53:23.845Z" agent="Mozilla/5.0 (Windows NT 10.0; Win64; x64) AppleWebKit/537.36 (KHTML, like Gecko) Chrome/123.0.0.0 Safari/537.36 Edg/123.0.0.0" etag="BJkMds19xiSqtJguCsto" version="24.2.3" type="google">
  <diagram name="Page-1" id="V322s12j-XTgz0Hm7foN">
    <mxGraphModel grid="1" page="1" gridSize="10" guides="1" tooltips="1" connect="1" arrows="1" fold="1" pageScale="1" pageWidth="827" pageHeight="1169" math="0" shadow="0">
      <root>
        <mxCell id="0" />
        <mxCell id="1" parent="0" />
        <mxCell id="cto1Rn3HJPF4hdV79vc3-1" value="LECTURER" style="shape=table;startSize=30;container=1;collapsible=1;childLayout=tableLayout;fixedRows=1;rowLines=0;fontStyle=1;align=center;resizeLast=1;html=1;fillColor=#FFFFFF;" vertex="1" parent="1">
          <mxGeometry x="40" y="350" width="180" height="210" as="geometry" />
        </mxCell>
        <mxCell id="cto1Rn3HJPF4hdV79vc3-2" value="" style="shape=tableRow;horizontal=0;startSize=0;swimlaneHead=0;swimlaneBody=0;fillColor=none;collapsible=0;dropTarget=0;points=[[0,0.5],[1,0.5]];portConstraint=eastwest;top=0;left=0;right=0;bottom=1;" vertex="1" parent="cto1Rn3HJPF4hdV79vc3-1">
          <mxGeometry y="30" width="180" height="30" as="geometry" />
        </mxCell>
        <mxCell id="cto1Rn3HJPF4hdV79vc3-3" value="PK" style="shape=partialRectangle;connectable=0;fillColor=none;top=0;left=0;bottom=0;right=0;fontStyle=1;overflow=hidden;whiteSpace=wrap;html=1;" vertex="1" parent="cto1Rn3HJPF4hdV79vc3-2">
          <mxGeometry width="30" height="30" as="geometry">
            <mxRectangle width="30" height="30" as="alternateBounds" />
          </mxGeometry>
        </mxCell>
        <mxCell id="cto1Rn3HJPF4hdV79vc3-4" value="LecturerID" style="shape=partialRectangle;connectable=0;fillColor=none;top=0;left=0;bottom=0;right=0;align=left;spacingLeft=6;fontStyle=5;overflow=hidden;whiteSpace=wrap;html=1;" vertex="1" parent="cto1Rn3HJPF4hdV79vc3-2">
          <mxGeometry x="30" width="150" height="30" as="geometry">
            <mxRectangle width="150" height="30" as="alternateBounds" />
          </mxGeometry>
        </mxCell>
        <mxCell id="cto1Rn3HJPF4hdV79vc3-5" value="" style="shape=tableRow;horizontal=0;startSize=0;swimlaneHead=0;swimlaneBody=0;fillColor=none;collapsible=0;dropTarget=0;points=[[0,0.5],[1,0.5]];portConstraint=eastwest;top=0;left=0;right=0;bottom=0;" vertex="1" parent="cto1Rn3HJPF4hdV79vc3-1">
          <mxGeometry y="60" width="180" height="30" as="geometry" />
        </mxCell>
        <mxCell id="cto1Rn3HJPF4hdV79vc3-6" value="" style="shape=partialRectangle;connectable=0;fillColor=none;top=0;left=0;bottom=0;right=0;editable=1;overflow=hidden;whiteSpace=wrap;html=1;" vertex="1" parent="cto1Rn3HJPF4hdV79vc3-5">
          <mxGeometry width="30" height="30" as="geometry">
            <mxRectangle width="30" height="30" as="alternateBounds" />
          </mxGeometry>
        </mxCell>
        <mxCell id="cto1Rn3HJPF4hdV79vc3-7" value="LecturerName" style="shape=partialRectangle;connectable=0;fillColor=none;top=0;left=0;bottom=0;right=0;align=left;spacingLeft=6;overflow=hidden;whiteSpace=wrap;html=1;" vertex="1" parent="cto1Rn3HJPF4hdV79vc3-5">
          <mxGeometry x="30" width="150" height="30" as="geometry">
            <mxRectangle width="150" height="30" as="alternateBounds" />
          </mxGeometry>
        </mxCell>
        <mxCell id="cto1Rn3HJPF4hdV79vc3-8" value="" style="shape=tableRow;horizontal=0;startSize=0;swimlaneHead=0;swimlaneBody=0;fillColor=none;collapsible=0;dropTarget=0;points=[[0,0.5],[1,0.5]];portConstraint=eastwest;top=0;left=0;right=0;bottom=0;" vertex="1" parent="cto1Rn3HJPF4hdV79vc3-1">
          <mxGeometry y="90" width="180" height="30" as="geometry" />
        </mxCell>
        <mxCell id="cto1Rn3HJPF4hdV79vc3-9" value="" style="shape=partialRectangle;connectable=0;fillColor=none;top=0;left=0;bottom=0;right=0;editable=1;overflow=hidden;whiteSpace=wrap;html=1;" vertex="1" parent="cto1Rn3HJPF4hdV79vc3-8">
          <mxGeometry width="30" height="30" as="geometry">
            <mxRectangle width="30" height="30" as="alternateBounds" />
          </mxGeometry>
        </mxCell>
        <mxCell id="cto1Rn3HJPF4hdV79vc3-10" value="Title" style="shape=partialRectangle;connectable=0;fillColor=none;top=0;left=0;bottom=0;right=0;align=left;spacingLeft=6;overflow=hidden;whiteSpace=wrap;html=1;" vertex="1" parent="cto1Rn3HJPF4hdV79vc3-8">
          <mxGeometry x="30" width="150" height="30" as="geometry">
            <mxRectangle width="150" height="30" as="alternateBounds" />
          </mxGeometry>
        </mxCell>
        <mxCell id="cto1Rn3HJPF4hdV79vc3-11" value="" style="shape=tableRow;horizontal=0;startSize=0;swimlaneHead=0;swimlaneBody=0;fillColor=none;collapsible=0;dropTarget=0;points=[[0,0.5],[1,0.5]];portConstraint=eastwest;top=0;left=0;right=0;bottom=0;" vertex="1" parent="cto1Rn3HJPF4hdV79vc3-1">
          <mxGeometry y="120" width="180" height="30" as="geometry" />
        </mxCell>
        <mxCell id="cto1Rn3HJPF4hdV79vc3-12" value="" style="shape=partialRectangle;connectable=0;fillColor=none;top=0;left=0;bottom=0;right=0;editable=1;overflow=hidden;whiteSpace=wrap;html=1;" vertex="1" parent="cto1Rn3HJPF4hdV79vc3-11">
          <mxGeometry width="30" height="30" as="geometry">
            <mxRectangle width="30" height="30" as="alternateBounds" />
          </mxGeometry>
        </mxCell>
        <mxCell id="cto1Rn3HJPF4hdV79vc3-13" value="" style="shape=partialRectangle;connectable=0;fillColor=none;top=0;left=0;bottom=0;right=0;align=left;spacingLeft=6;overflow=hidden;whiteSpace=wrap;html=1;" vertex="1" parent="cto1Rn3HJPF4hdV79vc3-11">
          <mxGeometry x="30" width="150" height="30" as="geometry">
            <mxRectangle width="150" height="30" as="alternateBounds" />
          </mxGeometry>
        </mxCell>
        <mxCell id="cto1Rn3HJPF4hdV79vc3-14" value="SUBJECT" style="shape=table;startSize=30;container=1;collapsible=1;childLayout=tableLayout;fixedRows=1;rowLines=0;fontStyle=1;align=center;resizeLast=1;html=1;" vertex="1" parent="1">
          <mxGeometry x="20" y="890" width="180" height="180" as="geometry" />
        </mxCell>
        <mxCell id="cto1Rn3HJPF4hdV79vc3-15" value="" style="shape=tableRow;horizontal=0;startSize=0;swimlaneHead=0;swimlaneBody=0;fillColor=none;collapsible=0;dropTarget=0;points=[[0,0.5],[1,0.5]];portConstraint=eastwest;top=0;left=0;right=0;bottom=1;" vertex="1" parent="cto1Rn3HJPF4hdV79vc3-14">
          <mxGeometry y="30" width="180" height="30" as="geometry" />
        </mxCell>
        <mxCell id="cto1Rn3HJPF4hdV79vc3-16" value="PK" style="shape=partialRectangle;connectable=0;fillColor=none;top=0;left=0;bottom=0;right=0;fontStyle=1;overflow=hidden;whiteSpace=wrap;html=1;" vertex="1" parent="cto1Rn3HJPF4hdV79vc3-15">
          <mxGeometry width="30" height="30" as="geometry">
            <mxRectangle width="30" height="30" as="alternateBounds" />
          </mxGeometry>
        </mxCell>
        <mxCell id="cto1Rn3HJPF4hdV79vc3-17" value="SubjectID" style="shape=partialRectangle;connectable=0;fillColor=none;top=0;left=0;bottom=0;right=0;align=left;spacingLeft=6;fontStyle=5;overflow=hidden;whiteSpace=wrap;html=1;" vertex="1" parent="cto1Rn3HJPF4hdV79vc3-15">
          <mxGeometry x="30" width="150" height="30" as="geometry">
            <mxRectangle width="150" height="30" as="alternateBounds" />
          </mxGeometry>
        </mxCell>
        <mxCell id="cto1Rn3HJPF4hdV79vc3-18" value="" style="shape=tableRow;horizontal=0;startSize=0;swimlaneHead=0;swimlaneBody=0;fillColor=none;collapsible=0;dropTarget=0;points=[[0,0.5],[1,0.5]];portConstraint=eastwest;top=0;left=0;right=0;bottom=0;" vertex="1" parent="cto1Rn3HJPF4hdV79vc3-14">
          <mxGeometry y="60" width="180" height="30" as="geometry" />
        </mxCell>
        <mxCell id="cto1Rn3HJPF4hdV79vc3-19" value="" style="shape=partialRectangle;connectable=0;fillColor=none;top=0;left=0;bottom=0;right=0;editable=1;overflow=hidden;whiteSpace=wrap;html=1;" vertex="1" parent="cto1Rn3HJPF4hdV79vc3-18">
          <mxGeometry width="30" height="30" as="geometry">
            <mxRectangle width="30" height="30" as="alternateBounds" />
          </mxGeometry>
        </mxCell>
        <mxCell id="cto1Rn3HJPF4hdV79vc3-20" value="SubjectName" style="shape=partialRectangle;connectable=0;fillColor=none;top=0;left=0;bottom=0;right=0;align=left;spacingLeft=6;overflow=hidden;whiteSpace=wrap;html=1;" vertex="1" parent="cto1Rn3HJPF4hdV79vc3-18">
          <mxGeometry x="30" width="150" height="30" as="geometry">
            <mxRectangle width="150" height="30" as="alternateBounds" />
          </mxGeometry>
        </mxCell>
        <mxCell id="cto1Rn3HJPF4hdV79vc3-21" value="" style="shape=tableRow;horizontal=0;startSize=0;swimlaneHead=0;swimlaneBody=0;fillColor=none;collapsible=0;dropTarget=0;points=[[0,0.5],[1,0.5]];portConstraint=eastwest;top=0;left=0;right=0;bottom=0;" vertex="1" parent="cto1Rn3HJPF4hdV79vc3-14">
          <mxGeometry y="90" width="180" height="30" as="geometry" />
        </mxCell>
        <mxCell id="cto1Rn3HJPF4hdV79vc3-22" value="" style="shape=partialRectangle;connectable=0;fillColor=none;top=0;left=0;bottom=0;right=0;editable=1;overflow=hidden;whiteSpace=wrap;html=1;" vertex="1" parent="cto1Rn3HJPF4hdV79vc3-21">
          <mxGeometry width="30" height="30" as="geometry">
            <mxRectangle width="30" height="30" as="alternateBounds" />
          </mxGeometry>
        </mxCell>
        <mxCell id="cto1Rn3HJPF4hdV79vc3-23" value="Credits" style="shape=partialRectangle;connectable=0;fillColor=none;top=0;left=0;bottom=0;right=0;align=left;spacingLeft=6;overflow=hidden;whiteSpace=wrap;html=1;" vertex="1" parent="cto1Rn3HJPF4hdV79vc3-21">
          <mxGeometry x="30" width="150" height="30" as="geometry">
            <mxRectangle width="150" height="30" as="alternateBounds" />
          </mxGeometry>
        </mxCell>
        <mxCell id="cto1Rn3HJPF4hdV79vc3-24" value="" style="shape=tableRow;horizontal=0;startSize=0;swimlaneHead=0;swimlaneBody=0;fillColor=none;collapsible=0;dropTarget=0;points=[[0,0.5],[1,0.5]];portConstraint=eastwest;top=0;left=0;right=0;bottom=0;" vertex="1" parent="cto1Rn3HJPF4hdV79vc3-14">
          <mxGeometry y="120" width="180" height="30" as="geometry" />
        </mxCell>
        <mxCell id="cto1Rn3HJPF4hdV79vc3-25" value="" style="shape=partialRectangle;connectable=0;fillColor=none;top=0;left=0;bottom=0;right=0;editable=1;overflow=hidden;whiteSpace=wrap;html=1;" vertex="1" parent="cto1Rn3HJPF4hdV79vc3-24">
          <mxGeometry width="30" height="30" as="geometry">
            <mxRectangle width="30" height="30" as="alternateBounds" />
          </mxGeometry>
        </mxCell>
        <mxCell id="cto1Rn3HJPF4hdV79vc3-26" value="" style="shape=partialRectangle;connectable=0;fillColor=none;top=0;left=0;bottom=0;right=0;align=left;spacingLeft=6;overflow=hidden;whiteSpace=wrap;html=1;" vertex="1" parent="cto1Rn3HJPF4hdV79vc3-24">
          <mxGeometry x="30" width="150" height="30" as="geometry">
            <mxRectangle width="150" height="30" as="alternateBounds" />
          </mxGeometry>
        </mxCell>
        <mxCell id="cto1Rn3HJPF4hdV79vc3-28" value="COURSE" style="shape=table;startSize=30;container=1;collapsible=1;childLayout=tableLayout;fixedRows=1;rowLines=0;fontStyle=1;align=center;resizeLast=1;html=1;" vertex="1" parent="1">
          <mxGeometry x="320" y="450" width="180" height="360" as="geometry" />
        </mxCell>
        <mxCell id="cto1Rn3HJPF4hdV79vc3-29" value="" style="shape=tableRow;horizontal=0;startSize=0;swimlaneHead=0;swimlaneBody=0;fillColor=none;collapsible=0;dropTarget=0;points=[[0,0.5],[1,0.5]];portConstraint=eastwest;top=0;left=0;right=0;bottom=1;" vertex="1" parent="cto1Rn3HJPF4hdV79vc3-28">
          <mxGeometry y="30" width="180" height="30" as="geometry" />
        </mxCell>
        <mxCell id="cto1Rn3HJPF4hdV79vc3-30" value="PK" style="shape=partialRectangle;connectable=0;fillColor=none;top=0;left=0;bottom=0;right=0;fontStyle=1;overflow=hidden;whiteSpace=wrap;html=1;" vertex="1" parent="cto1Rn3HJPF4hdV79vc3-29">
          <mxGeometry width="30" height="30" as="geometry">
            <mxRectangle width="30" height="30" as="alternateBounds" />
          </mxGeometry>
        </mxCell>
        <mxCell id="cto1Rn3HJPF4hdV79vc3-31" value="CourseID" style="shape=partialRectangle;connectable=0;fillColor=none;top=0;left=0;bottom=0;right=0;align=left;spacingLeft=6;fontStyle=5;overflow=hidden;whiteSpace=wrap;html=1;" vertex="1" parent="cto1Rn3HJPF4hdV79vc3-29">
          <mxGeometry x="30" width="150" height="30" as="geometry">
            <mxRectangle width="150" height="30" as="alternateBounds" />
          </mxGeometry>
        </mxCell>
        <mxCell id="cto1Rn3HJPF4hdV79vc3-32" value="" style="shape=tableRow;horizontal=0;startSize=0;swimlaneHead=0;swimlaneBody=0;fillColor=none;collapsible=0;dropTarget=0;points=[[0,0.5],[1,0.5]];portConstraint=eastwest;top=0;left=0;right=0;bottom=0;" vertex="1" parent="cto1Rn3HJPF4hdV79vc3-28">
          <mxGeometry y="60" width="180" height="30" as="geometry" />
        </mxCell>
        <mxCell id="cto1Rn3HJPF4hdV79vc3-33" value="" style="shape=partialRectangle;connectable=0;fillColor=none;top=0;left=0;bottom=0;right=0;editable=1;overflow=hidden;whiteSpace=wrap;html=1;" vertex="1" parent="cto1Rn3HJPF4hdV79vc3-32">
          <mxGeometry width="30" height="30" as="geometry">
            <mxRectangle width="30" height="30" as="alternateBounds" />
          </mxGeometry>
        </mxCell>
        <mxCell id="cto1Rn3HJPF4hdV79vc3-34" value="LecturerID" style="shape=partialRectangle;connectable=0;fillColor=none;top=0;left=0;bottom=0;right=0;align=left;spacingLeft=6;overflow=hidden;whiteSpace=wrap;html=1;" vertex="1" parent="cto1Rn3HJPF4hdV79vc3-32">
          <mxGeometry x="30" width="150" height="30" as="geometry">
            <mxRectangle width="150" height="30" as="alternateBounds" />
          </mxGeometry>
        </mxCell>
        <mxCell id="cto1Rn3HJPF4hdV79vc3-35" value="" style="shape=tableRow;horizontal=0;startSize=0;swimlaneHead=0;swimlaneBody=0;fillColor=none;collapsible=0;dropTarget=0;points=[[0,0.5],[1,0.5]];portConstraint=eastwest;top=0;left=0;right=0;bottom=0;" vertex="1" parent="cto1Rn3HJPF4hdV79vc3-28">
          <mxGeometry y="90" width="180" height="30" as="geometry" />
        </mxCell>
        <mxCell id="cto1Rn3HJPF4hdV79vc3-36" value="" style="shape=partialRectangle;connectable=0;fillColor=none;top=0;left=0;bottom=0;right=0;editable=1;overflow=hidden;whiteSpace=wrap;html=1;" vertex="1" parent="cto1Rn3HJPF4hdV79vc3-35">
          <mxGeometry width="30" height="30" as="geometry">
            <mxRectangle width="30" height="30" as="alternateBounds" />
          </mxGeometry>
        </mxCell>
        <mxCell id="cto1Rn3HJPF4hdV79vc3-37" value="SubjectID" style="shape=partialRectangle;connectable=0;fillColor=none;top=0;left=0;bottom=0;right=0;align=left;spacingLeft=6;overflow=hidden;whiteSpace=wrap;html=1;" vertex="1" parent="cto1Rn3HJPF4hdV79vc3-35">
          <mxGeometry x="30" width="150" height="30" as="geometry">
            <mxRectangle width="150" height="30" as="alternateBounds" />
          </mxGeometry>
        </mxCell>
        <mxCell id="cto1Rn3HJPF4hdV79vc3-38" value="" style="shape=tableRow;horizontal=0;startSize=0;swimlaneHead=0;swimlaneBody=0;fillColor=none;collapsible=0;dropTarget=0;points=[[0,0.5],[1,0.5]];portConstraint=eastwest;top=0;left=0;right=0;bottom=0;" vertex="1" parent="cto1Rn3HJPF4hdV79vc3-28">
          <mxGeometry y="120" width="180" height="30" as="geometry" />
        </mxCell>
        <mxCell id="cto1Rn3HJPF4hdV79vc3-39" value="" style="shape=partialRectangle;connectable=0;fillColor=none;top=0;left=0;bottom=0;right=0;editable=1;overflow=hidden;whiteSpace=wrap;html=1;" vertex="1" parent="cto1Rn3HJPF4hdV79vc3-38">
          <mxGeometry width="30" height="30" as="geometry">
            <mxRectangle width="30" height="30" as="alternateBounds" />
          </mxGeometry>
        </mxCell>
        <mxCell id="cto1Rn3HJPF4hdV79vc3-40" value="" style="shape=partialRectangle;connectable=0;fillColor=none;top=0;left=0;bottom=0;right=0;align=left;spacingLeft=6;overflow=hidden;whiteSpace=wrap;html=1;" vertex="1" parent="cto1Rn3HJPF4hdV79vc3-38">
          <mxGeometry x="30" width="150" height="30" as="geometry">
            <mxRectangle width="150" height="30" as="alternateBounds" />
          </mxGeometry>
        </mxCell>
        <mxCell id="cto1Rn3HJPF4hdV79vc3-41" value="RoomID" style="shape=partialRectangle;connectable=0;fillColor=none;top=0;left=0;bottom=0;right=0;align=left;spacingLeft=6;overflow=hidden;whiteSpace=wrap;html=1;" vertex="1" parent="1">
          <mxGeometry x="350" y="570" width="150" height="30" as="geometry">
            <mxRectangle width="150" height="30" as="alternateBounds" />
          </mxGeometry>
        </mxCell>
        <mxCell id="cto1Rn3HJPF4hdV79vc3-58" value="ROOM" style="shape=table;startSize=30;container=1;collapsible=1;childLayout=tableLayout;fixedRows=1;rowLines=0;fontStyle=1;align=center;resizeLast=1;html=1;" vertex="1" parent="1">
          <mxGeometry x="630" y="40" width="180" height="200" as="geometry" />
        </mxCell>
        <mxCell id="cto1Rn3HJPF4hdV79vc3-59" value="" style="shape=tableRow;horizontal=0;startSize=0;swimlaneHead=0;swimlaneBody=0;fillColor=none;collapsible=0;dropTarget=0;points=[[0,0.5],[1,0.5]];portConstraint=eastwest;top=0;left=0;right=0;bottom=1;" vertex="1" parent="cto1Rn3HJPF4hdV79vc3-58">
          <mxGeometry y="30" width="180" height="30" as="geometry" />
        </mxCell>
        <mxCell id="cto1Rn3HJPF4hdV79vc3-60" value="PK" style="shape=partialRectangle;connectable=0;fillColor=none;top=0;left=0;bottom=0;right=0;fontStyle=1;overflow=hidden;whiteSpace=wrap;html=1;" vertex="1" parent="cto1Rn3HJPF4hdV79vc3-59">
          <mxGeometry width="30" height="30" as="geometry">
            <mxRectangle width="30" height="30" as="alternateBounds" />
          </mxGeometry>
        </mxCell>
        <mxCell id="cto1Rn3HJPF4hdV79vc3-61" value="RoomID" style="shape=partialRectangle;connectable=0;fillColor=none;top=0;left=0;bottom=0;right=0;align=left;spacingLeft=6;fontStyle=5;overflow=hidden;whiteSpace=wrap;html=1;" vertex="1" parent="cto1Rn3HJPF4hdV79vc3-59">
          <mxGeometry x="30" width="150" height="30" as="geometry">
            <mxRectangle width="150" height="30" as="alternateBounds" />
          </mxGeometry>
        </mxCell>
        <mxCell id="cto1Rn3HJPF4hdV79vc3-62" value="" style="shape=tableRow;horizontal=0;startSize=0;swimlaneHead=0;swimlaneBody=0;fillColor=none;collapsible=0;dropTarget=0;points=[[0,0.5],[1,0.5]];portConstraint=eastwest;top=0;left=0;right=0;bottom=0;" vertex="1" parent="cto1Rn3HJPF4hdV79vc3-58">
          <mxGeometry y="60" width="180" height="30" as="geometry" />
        </mxCell>
        <mxCell id="cto1Rn3HJPF4hdV79vc3-63" value="" style="shape=partialRectangle;connectable=0;fillColor=none;top=0;left=0;bottom=0;right=0;editable=1;overflow=hidden;whiteSpace=wrap;html=1;" vertex="1" parent="cto1Rn3HJPF4hdV79vc3-62">
          <mxGeometry width="30" height="30" as="geometry">
            <mxRectangle width="30" height="30" as="alternateBounds" />
          </mxGeometry>
        </mxCell>
        <mxCell id="cto1Rn3HJPF4hdV79vc3-64" value="RoomName" style="shape=partialRectangle;connectable=0;fillColor=none;top=0;left=0;bottom=0;right=0;align=left;spacingLeft=6;overflow=hidden;whiteSpace=wrap;html=1;" vertex="1" parent="cto1Rn3HJPF4hdV79vc3-62">
          <mxGeometry x="30" width="150" height="30" as="geometry">
            <mxRectangle width="150" height="30" as="alternateBounds" />
          </mxGeometry>
        </mxCell>
        <mxCell id="cto1Rn3HJPF4hdV79vc3-65" value="" style="shape=tableRow;horizontal=0;startSize=0;swimlaneHead=0;swimlaneBody=0;fillColor=none;collapsible=0;dropTarget=0;points=[[0,0.5],[1,0.5]];portConstraint=eastwest;top=0;left=0;right=0;bottom=0;" vertex="1" parent="cto1Rn3HJPF4hdV79vc3-58">
          <mxGeometry y="90" width="180" height="30" as="geometry" />
        </mxCell>
        <mxCell id="cto1Rn3HJPF4hdV79vc3-66" value="" style="shape=partialRectangle;connectable=0;fillColor=none;top=0;left=0;bottom=0;right=0;editable=1;overflow=hidden;whiteSpace=wrap;html=1;" vertex="1" parent="cto1Rn3HJPF4hdV79vc3-65">
          <mxGeometry width="30" height="30" as="geometry">
            <mxRectangle width="30" height="30" as="alternateBounds" />
          </mxGeometry>
        </mxCell>
        <mxCell id="cto1Rn3HJPF4hdV79vc3-67" value="Capacity" style="shape=partialRectangle;connectable=0;fillColor=none;top=0;left=0;bottom=0;right=0;align=left;spacingLeft=6;overflow=hidden;whiteSpace=wrap;html=1;" vertex="1" parent="cto1Rn3HJPF4hdV79vc3-65">
          <mxGeometry x="30" width="150" height="30" as="geometry">
            <mxRectangle width="150" height="30" as="alternateBounds" />
          </mxGeometry>
        </mxCell>
        <mxCell id="cto1Rn3HJPF4hdV79vc3-68" value="" style="shape=tableRow;horizontal=0;startSize=0;swimlaneHead=0;swimlaneBody=0;fillColor=none;collapsible=0;dropTarget=0;points=[[0,0.5],[1,0.5]];portConstraint=eastwest;top=0;left=0;right=0;bottom=0;" vertex="1" parent="cto1Rn3HJPF4hdV79vc3-58">
          <mxGeometry y="120" width="180" height="30" as="geometry" />
        </mxCell>
        <mxCell id="cto1Rn3HJPF4hdV79vc3-69" value="" style="shape=partialRectangle;connectable=0;fillColor=none;top=0;left=0;bottom=0;right=0;editable=1;overflow=hidden;whiteSpace=wrap;html=1;" vertex="1" parent="cto1Rn3HJPF4hdV79vc3-68">
          <mxGeometry width="30" height="30" as="geometry">
            <mxRectangle width="30" height="30" as="alternateBounds" />
          </mxGeometry>
        </mxCell>
        <mxCell id="cto1Rn3HJPF4hdV79vc3-70" value="" style="shape=partialRectangle;connectable=0;fillColor=none;top=0;left=0;bottom=0;right=0;align=left;spacingLeft=6;overflow=hidden;whiteSpace=wrap;html=1;" vertex="1" parent="cto1Rn3HJPF4hdV79vc3-68">
          <mxGeometry x="30" width="150" height="30" as="geometry">
            <mxRectangle width="150" height="30" as="alternateBounds" />
          </mxGeometry>
        </mxCell>
        <mxCell id="cto1Rn3HJPF4hdV79vc3-71" value="RoomType" style="shape=partialRectangle;connectable=0;fillColor=none;top=0;left=0;bottom=0;right=0;align=left;spacingLeft=6;overflow=hidden;whiteSpace=wrap;html=1;" vertex="1" parent="1">
          <mxGeometry x="660" y="160" width="150" height="30" as="geometry">
            <mxRectangle width="150" height="30" as="alternateBounds" />
          </mxGeometry>
        </mxCell>
        <mxCell id="cto1Rn3HJPF4hdV79vc3-73" value="REQUEST" style="shape=table;startSize=30;container=1;collapsible=1;childLayout=tableLayout;fixedRows=1;rowLines=0;fontStyle=1;align=center;resizeLast=1;html=1;" vertex="1" parent="1">
          <mxGeometry x="40" y="40" width="180" height="220" as="geometry" />
        </mxCell>
        <mxCell id="cto1Rn3HJPF4hdV79vc3-74" value="" style="shape=tableRow;horizontal=0;startSize=0;swimlaneHead=0;swimlaneBody=0;fillColor=none;collapsible=0;dropTarget=0;points=[[0,0.5],[1,0.5]];portConstraint=eastwest;top=0;left=0;right=0;bottom=1;" vertex="1" parent="cto1Rn3HJPF4hdV79vc3-73">
          <mxGeometry y="30" width="180" height="30" as="geometry" />
        </mxCell>
        <mxCell id="cto1Rn3HJPF4hdV79vc3-75" value="PK" style="shape=partialRectangle;connectable=0;fillColor=none;top=0;left=0;bottom=0;right=0;fontStyle=1;overflow=hidden;whiteSpace=wrap;html=1;" vertex="1" parent="cto1Rn3HJPF4hdV79vc3-74">
          <mxGeometry width="30" height="30" as="geometry">
            <mxRectangle width="30" height="30" as="alternateBounds" />
          </mxGeometry>
        </mxCell>
        <mxCell id="cto1Rn3HJPF4hdV79vc3-76" value="RequestID" style="shape=partialRectangle;connectable=0;fillColor=none;top=0;left=0;bottom=0;right=0;align=left;spacingLeft=6;fontStyle=5;overflow=hidden;whiteSpace=wrap;html=1;" vertex="1" parent="cto1Rn3HJPF4hdV79vc3-74">
          <mxGeometry x="30" width="150" height="30" as="geometry">
            <mxRectangle width="150" height="30" as="alternateBounds" />
          </mxGeometry>
        </mxCell>
        <mxCell id="cto1Rn3HJPF4hdV79vc3-77" value="" style="shape=tableRow;horizontal=0;startSize=0;swimlaneHead=0;swimlaneBody=0;fillColor=none;collapsible=0;dropTarget=0;points=[[0,0.5],[1,0.5]];portConstraint=eastwest;top=0;left=0;right=0;bottom=0;" vertex="1" parent="cto1Rn3HJPF4hdV79vc3-73">
          <mxGeometry y="60" width="180" height="30" as="geometry" />
        </mxCell>
        <mxCell id="cto1Rn3HJPF4hdV79vc3-78" value="" style="shape=partialRectangle;connectable=0;fillColor=none;top=0;left=0;bottom=0;right=0;editable=1;overflow=hidden;whiteSpace=wrap;html=1;" vertex="1" parent="cto1Rn3HJPF4hdV79vc3-77">
          <mxGeometry width="30" height="30" as="geometry">
            <mxRectangle width="30" height="30" as="alternateBounds" />
          </mxGeometry>
        </mxCell>
        <mxCell id="cto1Rn3HJPF4hdV79vc3-79" value="LectureID" style="shape=partialRectangle;connectable=0;fillColor=none;top=0;left=0;bottom=0;right=0;align=left;spacingLeft=6;overflow=hidden;whiteSpace=wrap;html=1;" vertex="1" parent="cto1Rn3HJPF4hdV79vc3-77">
          <mxGeometry x="30" width="150" height="30" as="geometry">
            <mxRectangle width="150" height="30" as="alternateBounds" />
          </mxGeometry>
        </mxCell>
        <mxCell id="cto1Rn3HJPF4hdV79vc3-80" value="" style="shape=tableRow;horizontal=0;startSize=0;swimlaneHead=0;swimlaneBody=0;fillColor=none;collapsible=0;dropTarget=0;points=[[0,0.5],[1,0.5]];portConstraint=eastwest;top=0;left=0;right=0;bottom=0;" vertex="1" parent="cto1Rn3HJPF4hdV79vc3-73">
          <mxGeometry y="90" width="180" height="30" as="geometry" />
        </mxCell>
        <mxCell id="cto1Rn3HJPF4hdV79vc3-81" value="" style="shape=partialRectangle;connectable=0;fillColor=none;top=0;left=0;bottom=0;right=0;editable=1;overflow=hidden;whiteSpace=wrap;html=1;" vertex="1" parent="cto1Rn3HJPF4hdV79vc3-80">
          <mxGeometry width="30" height="30" as="geometry">
            <mxRectangle width="30" height="30" as="alternateBounds" />
          </mxGeometry>
        </mxCell>
        <mxCell id="cto1Rn3HJPF4hdV79vc3-82" value="" style="shape=partialRectangle;connectable=0;fillColor=none;top=0;left=0;bottom=0;right=0;align=left;spacingLeft=6;overflow=hidden;whiteSpace=wrap;html=1;" vertex="1" parent="cto1Rn3HJPF4hdV79vc3-80">
          <mxGeometry x="30" width="150" height="30" as="geometry">
            <mxRectangle width="150" height="30" as="alternateBounds" />
          </mxGeometry>
        </mxCell>
        <mxCell id="cto1Rn3HJPF4hdV79vc3-83" value="" style="shape=tableRow;horizontal=0;startSize=0;swimlaneHead=0;swimlaneBody=0;fillColor=none;collapsible=0;dropTarget=0;points=[[0,0.5],[1,0.5]];portConstraint=eastwest;top=0;left=0;right=0;bottom=0;" vertex="1" parent="cto1Rn3HJPF4hdV79vc3-73">
          <mxGeometry y="120" width="180" height="30" as="geometry" />
        </mxCell>
        <mxCell id="cto1Rn3HJPF4hdV79vc3-84" value="" style="shape=partialRectangle;connectable=0;fillColor=none;top=0;left=0;bottom=0;right=0;editable=1;overflow=hidden;whiteSpace=wrap;html=1;" vertex="1" parent="cto1Rn3HJPF4hdV79vc3-83">
          <mxGeometry width="30" height="30" as="geometry">
            <mxRectangle width="30" height="30" as="alternateBounds" />
          </mxGeometry>
        </mxCell>
        <mxCell id="cto1Rn3HJPF4hdV79vc3-85" value="" style="shape=partialRectangle;connectable=0;fillColor=none;top=0;left=0;bottom=0;right=0;align=left;spacingLeft=6;overflow=hidden;whiteSpace=wrap;html=1;" vertex="1" parent="cto1Rn3HJPF4hdV79vc3-83">
          <mxGeometry x="30" width="150" height="30" as="geometry">
            <mxRectangle width="150" height="30" as="alternateBounds" />
          </mxGeometry>
        </mxCell>
        <mxCell id="cto1Rn3HJPF4hdV79vc3-101" value="FK1" style="shape=partialRectangle;connectable=0;fillColor=none;top=0;left=0;bottom=0;right=0;fontStyle=1;overflow=hidden;whiteSpace=wrap;html=1;" vertex="1" parent="1">
          <mxGeometry x="320" y="510" width="30" height="30" as="geometry">
            <mxRectangle width="30" height="30" as="alternateBounds" />
          </mxGeometry>
        </mxCell>
        <mxCell id="cto1Rn3HJPF4hdV79vc3-102" value="FK2" style="shape=partialRectangle;connectable=0;fillColor=none;top=0;left=0;bottom=0;right=0;fontStyle=1;overflow=hidden;whiteSpace=wrap;html=1;" vertex="1" parent="1">
          <mxGeometry x="320" y="540" width="30" height="30" as="geometry">
            <mxRectangle width="30" height="30" as="alternateBounds" />
          </mxGeometry>
        </mxCell>
        <mxCell id="cto1Rn3HJPF4hdV79vc3-103" value="FK3" style="shape=partialRectangle;connectable=0;fillColor=none;top=0;left=0;bottom=0;right=0;fontStyle=1;overflow=hidden;whiteSpace=wrap;html=1;" vertex="1" parent="1">
          <mxGeometry x="320" y="570" width="30" height="30" as="geometry">
            <mxRectangle width="30" height="30" as="alternateBounds" />
          </mxGeometry>
        </mxCell>
        <mxCell id="cto1Rn3HJPF4hdV79vc3-104" value="FK4" style="shape=partialRectangle;connectable=0;fillColor=none;top=0;left=0;bottom=0;right=0;fontStyle=1;overflow=hidden;whiteSpace=wrap;html=1;" vertex="1" parent="1">
          <mxGeometry x="320" y="600" width="30" height="30" as="geometry">
            <mxRectangle width="30" height="30" as="alternateBounds" />
          </mxGeometry>
        </mxCell>
        <mxCell id="cto1Rn3HJPF4hdV79vc3-105" value="ScheduleID" style="shape=partialRectangle;connectable=0;fillColor=none;top=0;left=0;bottom=0;right=0;align=left;spacingLeft=6;overflow=hidden;whiteSpace=wrap;html=1;" vertex="1" parent="1">
          <mxGeometry x="350" y="600" width="150" height="30" as="geometry">
            <mxRectangle width="150" height="30" as="alternateBounds" />
          </mxGeometry>
        </mxCell>
        <mxCell id="cto1Rn3HJPF4hdV79vc3-107" value="Periods" style="shape=partialRectangle;connectable=0;fillColor=none;top=0;left=0;bottom=0;right=0;align=left;spacingLeft=6;overflow=hidden;whiteSpace=wrap;html=1;" vertex="1" parent="1">
          <mxGeometry x="350" y="630" width="150" height="30" as="geometry">
            <mxRectangle width="150" height="30" as="alternateBounds" />
          </mxGeometry>
        </mxCell>
        <mxCell id="cto1Rn3HJPF4hdV79vc3-108" value="ClassName" style="shape=partialRectangle;connectable=0;fillColor=none;top=0;left=0;bottom=0;right=0;align=left;spacingLeft=6;overflow=hidden;whiteSpace=wrap;html=1;" vertex="1" parent="1">
          <mxGeometry x="350" y="660" width="150" height="30" as="geometry">
            <mxRectangle width="150" height="30" as="alternateBounds" />
          </mxGeometry>
        </mxCell>
        <mxCell id="cto1Rn3HJPF4hdV79vc3-109" value="Cohort" style="shape=partialRectangle;connectable=0;fillColor=none;top=0;left=0;bottom=0;right=0;align=left;spacingLeft=6;overflow=hidden;whiteSpace=wrap;html=1;" vertex="1" parent="1">
          <mxGeometry x="350" y="690" width="150" height="30" as="geometry">
            <mxRectangle width="150" height="30" as="alternateBounds" />
          </mxGeometry>
        </mxCell>
        <mxCell id="cto1Rn3HJPF4hdV79vc3-110" value="FK1" style="shape=partialRectangle;connectable=0;fillColor=none;top=0;left=0;bottom=0;right=0;fontStyle=1;overflow=hidden;whiteSpace=wrap;html=1;" vertex="1" parent="1">
          <mxGeometry x="40" y="100" width="30" height="30" as="geometry">
            <mxRectangle width="30" height="30" as="alternateBounds" />
          </mxGeometry>
        </mxCell>
        <mxCell id="cto1Rn3HJPF4hdV79vc3-111" value="Content" style="shape=partialRectangle;connectable=0;fillColor=none;top=0;left=0;bottom=0;right=0;align=left;spacingLeft=6;overflow=hidden;whiteSpace=wrap;html=1;" vertex="1" parent="1">
          <mxGeometry x="70" y="130" width="150" height="30" as="geometry">
            <mxRectangle width="150" height="30" as="alternateBounds" />
          </mxGeometry>
        </mxCell>
        <mxCell id="cto1Rn3HJPF4hdV79vc3-112" value="SCHEDULE" style="shape=table;startSize=30;container=1;collapsible=1;childLayout=tableLayout;fixedRows=1;rowLines=0;fontStyle=1;align=center;resizeLast=1;html=1;" vertex="1" parent="1">
          <mxGeometry x="630" y="890" width="180" height="180" as="geometry" />
        </mxCell>
        <mxCell id="cto1Rn3HJPF4hdV79vc3-113" value="" style="shape=tableRow;horizontal=0;startSize=0;swimlaneHead=0;swimlaneBody=0;fillColor=none;collapsible=0;dropTarget=0;points=[[0,0.5],[1,0.5]];portConstraint=eastwest;top=0;left=0;right=0;bottom=1;" vertex="1" parent="cto1Rn3HJPF4hdV79vc3-112">
          <mxGeometry y="30" width="180" height="30" as="geometry" />
        </mxCell>
        <mxCell id="cto1Rn3HJPF4hdV79vc3-114" value="PK" style="shape=partialRectangle;connectable=0;fillColor=none;top=0;left=0;bottom=0;right=0;fontStyle=1;overflow=hidden;whiteSpace=wrap;html=1;" vertex="1" parent="cto1Rn3HJPF4hdV79vc3-113">
          <mxGeometry width="30" height="30" as="geometry">
            <mxRectangle width="30" height="30" as="alternateBounds" />
          </mxGeometry>
        </mxCell>
        <mxCell id="cto1Rn3HJPF4hdV79vc3-115" value="ScheduleID" style="shape=partialRectangle;connectable=0;fillColor=none;top=0;left=0;bottom=0;right=0;align=left;spacingLeft=6;fontStyle=5;overflow=hidden;whiteSpace=wrap;html=1;" vertex="1" parent="cto1Rn3HJPF4hdV79vc3-113">
          <mxGeometry x="30" width="150" height="30" as="geometry">
            <mxRectangle width="150" height="30" as="alternateBounds" />
          </mxGeometry>
        </mxCell>
        <mxCell id="cto1Rn3HJPF4hdV79vc3-116" value="" style="shape=tableRow;horizontal=0;startSize=0;swimlaneHead=0;swimlaneBody=0;fillColor=none;collapsible=0;dropTarget=0;points=[[0,0.5],[1,0.5]];portConstraint=eastwest;top=0;left=0;right=0;bottom=0;" vertex="1" parent="cto1Rn3HJPF4hdV79vc3-112">
          <mxGeometry y="60" width="180" height="30" as="geometry" />
        </mxCell>
        <mxCell id="cto1Rn3HJPF4hdV79vc3-117" value="" style="shape=partialRectangle;connectable=0;fillColor=none;top=0;left=0;bottom=0;right=0;editable=1;overflow=hidden;whiteSpace=wrap;html=1;" vertex="1" parent="cto1Rn3HJPF4hdV79vc3-116">
          <mxGeometry width="30" height="30" as="geometry">
            <mxRectangle width="30" height="30" as="alternateBounds" />
          </mxGeometry>
        </mxCell>
        <mxCell id="cto1Rn3HJPF4hdV79vc3-118" value="Semeter" style="shape=partialRectangle;connectable=0;fillColor=none;top=0;left=0;bottom=0;right=0;align=left;spacingLeft=6;overflow=hidden;whiteSpace=wrap;html=1;" vertex="1" parent="cto1Rn3HJPF4hdV79vc3-116">
          <mxGeometry x="30" width="150" height="30" as="geometry">
            <mxRectangle width="150" height="30" as="alternateBounds" />
          </mxGeometry>
        </mxCell>
        <mxCell id="cto1Rn3HJPF4hdV79vc3-119" value="" style="shape=tableRow;horizontal=0;startSize=0;swimlaneHead=0;swimlaneBody=0;fillColor=none;collapsible=0;dropTarget=0;points=[[0,0.5],[1,0.5]];portConstraint=eastwest;top=0;left=0;right=0;bottom=0;" vertex="1" parent="cto1Rn3HJPF4hdV79vc3-112">
          <mxGeometry y="90" width="180" height="30" as="geometry" />
        </mxCell>
        <mxCell id="cto1Rn3HJPF4hdV79vc3-120" value="" style="shape=partialRectangle;connectable=0;fillColor=none;top=0;left=0;bottom=0;right=0;editable=1;overflow=hidden;whiteSpace=wrap;html=1;" vertex="1" parent="cto1Rn3HJPF4hdV79vc3-119">
          <mxGeometry width="30" height="30" as="geometry">
            <mxRectangle width="30" height="30" as="alternateBounds" />
          </mxGeometry>
        </mxCell>
        <mxCell id="cto1Rn3HJPF4hdV79vc3-121" value="" style="shape=partialRectangle;connectable=0;fillColor=none;top=0;left=0;bottom=0;right=0;align=left;spacingLeft=6;overflow=hidden;whiteSpace=wrap;html=1;" vertex="1" parent="cto1Rn3HJPF4hdV79vc3-119">
          <mxGeometry x="30" width="150" height="30" as="geometry">
            <mxRectangle width="150" height="30" as="alternateBounds" />
          </mxGeometry>
        </mxCell>
        <mxCell id="cto1Rn3HJPF4hdV79vc3-122" value="" style="shape=tableRow;horizontal=0;startSize=0;swimlaneHead=0;swimlaneBody=0;fillColor=none;collapsible=0;dropTarget=0;points=[[0,0.5],[1,0.5]];portConstraint=eastwest;top=0;left=0;right=0;bottom=0;" vertex="1" parent="cto1Rn3HJPF4hdV79vc3-112">
          <mxGeometry y="120" width="180" height="30" as="geometry" />
        </mxCell>
        <mxCell id="cto1Rn3HJPF4hdV79vc3-123" value="" style="shape=partialRectangle;connectable=0;fillColor=none;top=0;left=0;bottom=0;right=0;editable=1;overflow=hidden;whiteSpace=wrap;html=1;" vertex="1" parent="cto1Rn3HJPF4hdV79vc3-122">
          <mxGeometry width="30" height="30" as="geometry">
            <mxRectangle width="30" height="30" as="alternateBounds" />
          </mxGeometry>
        </mxCell>
        <mxCell id="cto1Rn3HJPF4hdV79vc3-124" value="" style="shape=partialRectangle;connectable=0;fillColor=none;top=0;left=0;bottom=0;right=0;align=left;spacingLeft=6;overflow=hidden;whiteSpace=wrap;html=1;" vertex="1" parent="cto1Rn3HJPF4hdV79vc3-122">
          <mxGeometry x="30" width="150" height="30" as="geometry">
            <mxRectangle width="150" height="30" as="alternateBounds" />
          </mxGeometry>
        </mxCell>
        <mxCell id="cto1Rn3HJPF4hdV79vc3-130" value="ClassSize" style="shape=partialRectangle;connectable=0;fillColor=none;top=0;left=0;bottom=0;right=0;align=left;spacingLeft=6;overflow=hidden;whiteSpace=wrap;html=1;" vertex="1" parent="1">
          <mxGeometry x="350" y="720" width="150" height="30" as="geometry">
            <mxRectangle width="150" height="30" as="alternateBounds" />
          </mxGeometry>
        </mxCell>
        <mxCell id="cto1Rn3HJPF4hdV79vc3-131" value="" style="endArrow=none;html=1;rounded=0;exitX=1;exitY=0.5;exitDx=0;exitDy=0;" edge="1" parent="1" source="cto1Rn3HJPF4hdV79vc3-2">
          <mxGeometry width="50" height="50" relative="1" as="geometry">
            <mxPoint x="200" y="760" as="sourcePoint" />
            <mxPoint x="320" y="520" as="targetPoint" />
            <Array as="points">
              <mxPoint x="270" y="395" />
              <mxPoint x="270" y="520" />
            </Array>
          </mxGeometry>
        </mxCell>
        <mxCell id="cto1Rn3HJPF4hdV79vc3-132" value="teaches" style="rhombus;whiteSpace=wrap;html=1;" vertex="1" parent="1">
          <mxGeometry x="230" y="420" width="80" height="80" as="geometry" />
        </mxCell>
        <mxCell id="cto1Rn3HJPF4hdV79vc3-133" value="1" style="text;html=1;align=center;verticalAlign=middle;whiteSpace=wrap;rounded=0;" vertex="1" parent="1">
          <mxGeometry x="250" y="400" width="60" height="30" as="geometry" />
        </mxCell>
        <mxCell id="cto1Rn3HJPF4hdV79vc3-134" value="N" style="text;html=1;align=center;verticalAlign=middle;whiteSpace=wrap;rounded=0;" vertex="1" parent="1">
          <mxGeometry x="250" y="490" width="60" height="30" as="geometry" />
        </mxCell>
        <mxCell id="cto1Rn3HJPF4hdV79vc3-137" value="" style="endArrow=none;html=1;rounded=0;exitX=1;exitY=0.5;exitDx=0;exitDy=0;" edge="1" parent="1" source="cto1Rn3HJPF4hdV79vc3-15">
          <mxGeometry width="50" height="50" relative="1" as="geometry">
            <mxPoint x="250" y="750" as="sourcePoint" />
            <mxPoint x="320" y="550" as="targetPoint" />
            <Array as="points">
              <mxPoint x="280" y="935" />
              <mxPoint x="280" y="550" />
            </Array>
          </mxGeometry>
        </mxCell>
        <mxCell id="cto1Rn3HJPF4hdV79vc3-138" value="has" style="rhombus;whiteSpace=wrap;html=1;" vertex="1" parent="1">
          <mxGeometry x="240" y="800" width="80" height="80" as="geometry" />
        </mxCell>
        <mxCell id="cto1Rn3HJPF4hdV79vc3-139" value="1" style="text;html=1;align=center;verticalAlign=middle;whiteSpace=wrap;rounded=0;" vertex="1" parent="1">
          <mxGeometry x="240" y="870" width="60" height="30" as="geometry" />
        </mxCell>
        <mxCell id="cto1Rn3HJPF4hdV79vc3-140" value="N" style="text;html=1;align=center;verticalAlign=middle;whiteSpace=wrap;rounded=0;" vertex="1" parent="1">
          <mxGeometry x="240" y="780" width="60" height="30" as="geometry" />
        </mxCell>
        <mxCell id="cto1Rn3HJPF4hdV79vc3-141" value="" style="endArrow=none;html=1;rounded=0;entryX=0;entryY=0.5;entryDx=0;entryDy=0;" edge="1" parent="1" target="cto1Rn3HJPF4hdV79vc3-59">
          <mxGeometry width="50" height="50" relative="1" as="geometry">
            <mxPoint x="500" y="590" as="sourcePoint" />
            <mxPoint x="150" y="320" as="targetPoint" />
            <Array as="points">
              <mxPoint x="560" y="590" />
              <mxPoint x="560" y="85" />
            </Array>
          </mxGeometry>
        </mxCell>
        <mxCell id="cto1Rn3HJPF4hdV79vc3-142" value="takes place" style="rhombus;whiteSpace=wrap;html=1;" vertex="1" parent="1">
          <mxGeometry x="520" y="310" width="80" height="80" as="geometry" />
        </mxCell>
        <mxCell id="cto1Rn3HJPF4hdV79vc3-143" value="1" style="text;html=1;align=center;verticalAlign=middle;whiteSpace=wrap;rounded=0;" vertex="1" parent="1">
          <mxGeometry x="540" y="290" width="60" height="30" as="geometry" />
        </mxCell>
        <mxCell id="cto1Rn3HJPF4hdV79vc3-144" value="N" style="text;html=1;align=center;verticalAlign=middle;whiteSpace=wrap;rounded=0;" vertex="1" parent="1">
          <mxGeometry x="540" y="390" width="60" height="30" as="geometry" />
        </mxCell>
        <mxCell id="cto1Rn3HJPF4hdV79vc3-146" value="" style="endArrow=none;html=1;rounded=0;entryX=0;entryY=0.5;entryDx=0;entryDy=0;" edge="1" parent="1" target="cto1Rn3HJPF4hdV79vc3-113">
          <mxGeometry width="50" height="50" relative="1" as="geometry">
            <mxPoint x="500" y="610" as="sourcePoint" />
            <mxPoint x="580" y="1020" as="targetPoint" />
            <Array as="points">
              <mxPoint x="590" y="610" />
              <mxPoint x="590" y="715" />
              <mxPoint x="590" y="935" />
            </Array>
          </mxGeometry>
        </mxCell>
        <mxCell id="cto1Rn3HJPF4hdV79vc3-148" value="has" style="rhombus;whiteSpace=wrap;html=1;" vertex="1" parent="1">
          <mxGeometry x="550" y="760" width="80" height="80" as="geometry" />
        </mxCell>
        <mxCell id="cto1Rn3HJPF4hdV79vc3-150" value="1" style="text;html=1;align=center;verticalAlign=middle;whiteSpace=wrap;rounded=0;" vertex="1" parent="1">
          <mxGeometry x="570" y="830" width="60" height="30" as="geometry" />
        </mxCell>
        <mxCell id="cto1Rn3HJPF4hdV79vc3-151" value="N" style="text;html=1;align=center;verticalAlign=middle;whiteSpace=wrap;rounded=0;" vertex="1" parent="1">
          <mxGeometry x="570" y="740" width="60" height="30" as="geometry" />
        </mxCell>
        <mxCell id="cto1Rn3HJPF4hdV79vc3-164" value="" style="endArrow=none;html=1;rounded=0;exitX=1;exitY=0.231;exitDx=0;exitDy=0;exitPerimeter=0;entryX=1;entryY=0.5;entryDx=0;entryDy=0;" edge="1" parent="1" source="cto1Rn3HJPF4hdV79vc3-2" target="cto1Rn3HJPF4hdV79vc3-77">
          <mxGeometry width="50" height="50" relative="1" as="geometry">
            <mxPoint x="490" y="370" as="sourcePoint" />
            <mxPoint x="540" y="320" as="targetPoint" />
            <Array as="points">
              <mxPoint x="320" y="387" />
              <mxPoint x="320" y="115" />
            </Array>
          </mxGeometry>
        </mxCell>
        <mxCell id="cto1Rn3HJPF4hdV79vc3-165" value="makes" style="rhombus;whiteSpace=wrap;html=1;" vertex="1" parent="1">
          <mxGeometry x="280" y="175" width="80" height="80" as="geometry" />
        </mxCell>
        <mxCell id="cto1Rn3HJPF4hdV79vc3-166" value="1" style="text;html=1;align=center;verticalAlign=middle;whiteSpace=wrap;rounded=0;" vertex="1" parent="1">
          <mxGeometry x="300" y="250" width="60" height="30" as="geometry" />
        </mxCell>
        <mxCell id="cto1Rn3HJPF4hdV79vc3-167" value="N" style="text;html=1;align=center;verticalAlign=middle;whiteSpace=wrap;rounded=0;" vertex="1" parent="1">
          <mxGeometry x="300" y="150" width="60" height="30" as="geometry" />
        </mxCell>
        <mxCell id="cto1Rn3HJPF4hdV79vc3-168" value="ClassType" style="shape=partialRectangle;connectable=0;fillColor=none;top=0;left=0;bottom=0;right=0;align=left;spacingLeft=6;overflow=hidden;whiteSpace=wrap;html=1;" vertex="1" parent="1">
          <mxGeometry x="350" y="750" width="150" height="30" as="geometry">
            <mxRectangle width="150" height="30" as="alternateBounds" />
          </mxGeometry>
        </mxCell>
        <mxCell id="A0Q72YRL7aFaCpaF5peR-1" value="Status" style="shape=partialRectangle;connectable=0;fillColor=none;top=0;left=0;bottom=0;right=0;align=left;spacingLeft=6;overflow=hidden;whiteSpace=wrap;html=1;" vertex="1" parent="1">
          <mxGeometry x="70" y="160" width="150" height="30" as="geometry">
            <mxRectangle width="150" height="30" as="alternateBounds" />
          </mxGeometry>
        </mxCell>
        <mxCell id="A0Q72YRL7aFaCpaF5peR-2" value="Time" style="shape=partialRectangle;connectable=0;fillColor=none;top=0;left=0;bottom=0;right=0;align=left;spacingLeft=6;overflow=hidden;whiteSpace=wrap;html=1;" vertex="1" parent="1">
          <mxGeometry x="70" y="190" width="150" height="30" as="geometry">
            <mxRectangle width="150" height="30" as="alternateBounds" />
          </mxGeometry>
        </mxCell>
        <mxCell id="A0Q72YRL7aFaCpaF5peR-3" value="Date" style="shape=partialRectangle;connectable=0;fillColor=none;top=0;left=0;bottom=0;right=0;align=left;spacingLeft=6;overflow=hidden;whiteSpace=wrap;html=1;" vertex="1" parent="1">
          <mxGeometry x="70" y="220" width="150" height="30" as="geometry">
            <mxRectangle width="150" height="30" as="alternateBounds" />
          </mxGeometry>
        </mxCell>
        <mxCell id="A0Q72YRL7aFaCpaF5peR-4" value="Email" style="shape=partialRectangle;connectable=0;fillColor=none;top=0;left=0;bottom=0;right=0;align=left;spacingLeft=6;overflow=hidden;whiteSpace=wrap;html=1;" vertex="1" parent="1">
          <mxGeometry x="70" y="471" width="150" height="30" as="geometry">
            <mxRectangle width="150" height="30" as="alternateBounds" />
          </mxGeometry>
        </mxCell>
        <mxCell id="A0Q72YRL7aFaCpaF5peR-5" value="Password" style="shape=partialRectangle;connectable=0;fillColor=none;top=0;left=0;bottom=0;right=0;align=left;spacingLeft=6;overflow=hidden;whiteSpace=wrap;html=1;" vertex="1" parent="1">
          <mxGeometry x="70" y="501" width="150" height="30" as="geometry">
            <mxRectangle width="150" height="30" as="alternateBounds" />
          </mxGeometry>
        </mxCell>
        <mxCell id="A0Q72YRL7aFaCpaF5peR-6" value="Location" style="shape=partialRectangle;connectable=0;fillColor=none;top=0;left=0;bottom=0;right=0;align=left;spacingLeft=6;overflow=hidden;whiteSpace=wrap;html=1;" vertex="1" parent="1">
          <mxGeometry x="660" y="190" width="150" height="30" as="geometry">
            <mxRectangle width="150" height="30" as="alternateBounds" />
          </mxGeometry>
        </mxCell>
        <mxCell id="A0Q72YRL7aFaCpaF5peR-7" value="Year" style="shape=partialRectangle;connectable=0;fillColor=none;top=0;left=0;bottom=0;right=0;align=left;spacingLeft=6;overflow=hidden;whiteSpace=wrap;html=1;" vertex="1" parent="1">
          <mxGeometry x="660" y="980" width="150" height="30" as="geometry">
            <mxRectangle width="150" height="30" as="alternateBounds" />
          </mxGeometry>
        </mxCell>
        <mxCell id="uhs0hdpgMSpCMbtizzQa-1" value="REQUEST" style="rounded=0;whiteSpace=wrap;html=1;" vertex="1" parent="1">
          <mxGeometry x="15" y="1570" width="120" height="60" as="geometry" />
        </mxCell>
        <mxCell id="uhs0hdpgMSpCMbtizzQa-2" value="ROOM" style="rounded=0;whiteSpace=wrap;html=1;" vertex="1" parent="1">
          <mxGeometry x="475" y="1570" width="120" height="60" as="geometry" />
        </mxCell>
        <mxCell id="uhs0hdpgMSpCMbtizzQa-3" value="LECTURER" style="rounded=0;whiteSpace=wrap;html=1;" vertex="1" parent="1">
          <mxGeometry x="15" y="2000" width="120" height="60" as="geometry" />
        </mxCell>
        <mxCell id="uhs0hdpgMSpCMbtizzQa-4" value="COURSE" style="rounded=0;whiteSpace=wrap;html=1;" vertex="1" parent="1">
          <mxGeometry x="475" y="1999.5" width="120" height="60" as="geometry" />
        </mxCell>
        <mxCell id="uhs0hdpgMSpCMbtizzQa-5" value="SUBJECT" style="rounded=0;whiteSpace=wrap;html=1;" vertex="1" parent="1">
          <mxGeometry x="474" y="2390" width="120" height="60" as="geometry" />
        </mxCell>
        <mxCell id="uhs0hdpgMSpCMbtizzQa-6" value="SCHEDULE" style="rounded=0;whiteSpace=wrap;html=1;" vertex="1" parent="1">
          <mxGeometry x="955" y="2000" width="120" height="60" as="geometry" />
        </mxCell>
        <mxCell id="uhs0hdpgMSpCMbtizzQa-7" value="&lt;u&gt;RequestID&lt;/u&gt;" style="ellipse;whiteSpace=wrap;html=1;" vertex="1" parent="1">
          <mxGeometry x="-125" y="1485" width="70" height="50" as="geometry" />
        </mxCell>
        <mxCell id="uhs0hdpgMSpCMbtizzQa-8" value="Content" style="ellipse;whiteSpace=wrap;html=1;" vertex="1" parent="1">
          <mxGeometry x="-55" y="1450" width="70" height="50" as="geometry" />
        </mxCell>
        <mxCell id="uhs0hdpgMSpCMbtizzQa-9" value="Status" style="ellipse;whiteSpace=wrap;html=1;" vertex="1" parent="1">
          <mxGeometry x="40" y="1435" width="70" height="50" as="geometry" />
        </mxCell>
        <mxCell id="uhs0hdpgMSpCMbtizzQa-10" value="Time" style="ellipse;whiteSpace=wrap;html=1;" vertex="1" parent="1">
          <mxGeometry x="135" y="1450" width="70" height="50" as="geometry" />
        </mxCell>
        <mxCell id="uhs0hdpgMSpCMbtizzQa-11" value="Date" style="ellipse;whiteSpace=wrap;html=1;" vertex="1" parent="1">
          <mxGeometry x="205" y="1485" width="70" height="50" as="geometry" />
        </mxCell>
        <mxCell id="uhs0hdpgMSpCMbtizzQa-12" value="" style="endArrow=none;html=1;rounded=0;entryX=0.5;entryY=1;entryDx=0;entryDy=0;exitX=0.5;exitY=0;exitDx=0;exitDy=0;" edge="1" parent="1" source="uhs0hdpgMSpCMbtizzQa-1" target="uhs0hdpgMSpCMbtizzQa-7">
          <mxGeometry width="50" height="50" relative="1" as="geometry">
            <mxPoint x="125" y="1590" as="sourcePoint" />
            <mxPoint x="175" y="1540" as="targetPoint" />
          </mxGeometry>
        </mxCell>
        <mxCell id="uhs0hdpgMSpCMbtizzQa-13" value="" style="endArrow=none;html=1;rounded=0;entryX=0.5;entryY=1;entryDx=0;entryDy=0;exitX=0.5;exitY=0;exitDx=0;exitDy=0;" edge="1" parent="1" source="uhs0hdpgMSpCMbtizzQa-1" target="uhs0hdpgMSpCMbtizzQa-8">
          <mxGeometry width="50" height="50" relative="1" as="geometry">
            <mxPoint x="85" y="1580" as="sourcePoint" />
            <mxPoint x="-80" y="1545" as="targetPoint" />
          </mxGeometry>
        </mxCell>
        <mxCell id="uhs0hdpgMSpCMbtizzQa-14" value="" style="endArrow=none;html=1;rounded=0;entryX=0.5;entryY=1;entryDx=0;entryDy=0;exitX=0.5;exitY=0;exitDx=0;exitDy=0;" edge="1" parent="1" source="uhs0hdpgMSpCMbtizzQa-1" target="uhs0hdpgMSpCMbtizzQa-9">
          <mxGeometry width="50" height="50" relative="1" as="geometry">
            <mxPoint x="85" y="1580" as="sourcePoint" />
            <mxPoint x="-10" y="1510" as="targetPoint" />
          </mxGeometry>
        </mxCell>
        <mxCell id="uhs0hdpgMSpCMbtizzQa-15" value="" style="endArrow=none;html=1;rounded=0;entryX=0.5;entryY=1;entryDx=0;entryDy=0;exitX=0.5;exitY=0;exitDx=0;exitDy=0;" edge="1" parent="1" source="uhs0hdpgMSpCMbtizzQa-1" target="uhs0hdpgMSpCMbtizzQa-10">
          <mxGeometry width="50" height="50" relative="1" as="geometry">
            <mxPoint x="85" y="1580" as="sourcePoint" />
            <mxPoint x="85" y="1495" as="targetPoint" />
          </mxGeometry>
        </mxCell>
        <mxCell id="uhs0hdpgMSpCMbtizzQa-16" value="" style="endArrow=none;html=1;rounded=0;entryX=0.5;entryY=1;entryDx=0;entryDy=0;exitX=0.5;exitY=0;exitDx=0;exitDy=0;" edge="1" parent="1" source="uhs0hdpgMSpCMbtizzQa-1" target="uhs0hdpgMSpCMbtizzQa-11">
          <mxGeometry width="50" height="50" relative="1" as="geometry">
            <mxPoint x="85" y="1580" as="sourcePoint" />
            <mxPoint x="180" y="1510" as="targetPoint" />
          </mxGeometry>
        </mxCell>
        <mxCell id="uhs0hdpgMSpCMbtizzQa-17" value="LecturerName" style="ellipse;whiteSpace=wrap;html=1;" vertex="1" parent="1">
          <mxGeometry x="-65" y="2150" width="90" height="50" as="geometry" />
        </mxCell>
        <mxCell id="uhs0hdpgMSpCMbtizzQa-18" value="Title" style="ellipse;whiteSpace=wrap;html=1;" vertex="1" parent="1">
          <mxGeometry x="40" y="2140" width="70" height="50" as="geometry" />
        </mxCell>
        <mxCell id="uhs0hdpgMSpCMbtizzQa-19" value="Email" style="ellipse;whiteSpace=wrap;html=1;" vertex="1" parent="1">
          <mxGeometry x="125" y="2150" width="70" height="50" as="geometry" />
        </mxCell>
        <mxCell id="uhs0hdpgMSpCMbtizzQa-20" value="Password" style="ellipse;whiteSpace=wrap;html=1;" vertex="1" parent="1">
          <mxGeometry x="185" y="2100" width="70" height="50" as="geometry" />
        </mxCell>
        <mxCell id="uhs0hdpgMSpCMbtizzQa-21" value="" style="endArrow=none;html=1;rounded=0;entryX=0.5;entryY=0;entryDx=0;entryDy=0;exitX=0.5;exitY=1;exitDx=0;exitDy=0;" edge="1" parent="1" source="uhs0hdpgMSpCMbtizzQa-3" target="uhs0hdpgMSpCMbtizzQa-18">
          <mxGeometry width="50" height="50" relative="1" as="geometry">
            <mxPoint x="75" y="2060" as="sourcePoint" />
            <mxPoint x="35" y="1900" as="targetPoint" />
          </mxGeometry>
        </mxCell>
        <mxCell id="uhs0hdpgMSpCMbtizzQa-22" value="" style="endArrow=none;html=1;rounded=0;exitX=0.5;exitY=1;exitDx=0;exitDy=0;entryX=0.5;entryY=0;entryDx=0;entryDy=0;" edge="1" parent="1" source="uhs0hdpgMSpCMbtizzQa-3" target="uhs0hdpgMSpCMbtizzQa-17">
          <mxGeometry width="50" height="50" relative="1" as="geometry">
            <mxPoint x="85" y="2005" as="sourcePoint" />
            <mxPoint x="85" y="1920" as="targetPoint" />
          </mxGeometry>
        </mxCell>
        <mxCell id="uhs0hdpgMSpCMbtizzQa-23" value="" style="endArrow=none;html=1;rounded=0;exitX=0.5;exitY=1;exitDx=0;exitDy=0;entryX=0.5;entryY=0;entryDx=0;entryDy=0;" edge="1" parent="1" source="uhs0hdpgMSpCMbtizzQa-3" target="uhs0hdpgMSpCMbtizzQa-19">
          <mxGeometry width="50" height="50" relative="1" as="geometry">
            <mxPoint x="85" y="2005" as="sourcePoint" />
            <mxPoint x="85" y="1920" as="targetPoint" />
          </mxGeometry>
        </mxCell>
        <mxCell id="uhs0hdpgMSpCMbtizzQa-24" value="" style="endArrow=none;html=1;rounded=0;exitX=0.5;exitY=1;exitDx=0;exitDy=0;entryX=0.5;entryY=0;entryDx=0;entryDy=0;" edge="1" parent="1" source="uhs0hdpgMSpCMbtizzQa-3" target="uhs0hdpgMSpCMbtizzQa-20">
          <mxGeometry width="50" height="50" relative="1" as="geometry">
            <mxPoint x="85" y="2005" as="sourcePoint" />
            <mxPoint x="170" y="1930" as="targetPoint" />
          </mxGeometry>
        </mxCell>
        <mxCell id="uhs0hdpgMSpCMbtizzQa-25" value="&lt;u&gt;LecturerID&lt;/u&gt;" style="ellipse;whiteSpace=wrap;html=1;" vertex="1" parent="1">
          <mxGeometry x="-115" y="2110" width="70" height="50" as="geometry" />
        </mxCell>
        <mxCell id="uhs0hdpgMSpCMbtizzQa-26" value="" style="endArrow=none;html=1;rounded=0;exitX=0.5;exitY=1;exitDx=0;exitDy=0;entryX=0.5;entryY=0;entryDx=0;entryDy=0;" edge="1" parent="1" source="uhs0hdpgMSpCMbtizzQa-3" target="uhs0hdpgMSpCMbtizzQa-25">
          <mxGeometry width="50" height="50" relative="1" as="geometry">
            <mxPoint x="85" y="2065" as="sourcePoint" />
            <mxPoint y="2170" as="targetPoint" />
          </mxGeometry>
        </mxCell>
        <mxCell id="uhs0hdpgMSpCMbtizzQa-27" value="" style="endArrow=none;html=1;rounded=0;exitX=0.5;exitY=0;exitDx=0;exitDy=0;entryX=0.5;entryY=1;entryDx=0;entryDy=0;" edge="1" parent="1" source="uhs0hdpgMSpCMbtizzQa-3" target="uhs0hdpgMSpCMbtizzQa-1">
          <mxGeometry width="50" height="50" relative="1" as="geometry">
            <mxPoint x="-425" y="1840" as="sourcePoint" />
            <mxPoint x="-375" y="1790" as="targetPoint" />
          </mxGeometry>
        </mxCell>
        <mxCell id="uhs0hdpgMSpCMbtizzQa-28" value="makes" style="rhombus;whiteSpace=wrap;html=1;" vertex="1" parent="1">
          <mxGeometry x="35" y="1761" width="80" height="80" as="geometry" />
        </mxCell>
        <mxCell id="uhs0hdpgMSpCMbtizzQa-29" value="&lt;font style=&quot;font-size: 18px;&quot;&gt;&lt;b&gt;1&lt;/b&gt;&lt;/font&gt;" style="text;html=1;align=center;verticalAlign=middle;whiteSpace=wrap;rounded=0;" vertex="1" parent="1">
          <mxGeometry x="15" y="1841" width="60" height="30" as="geometry" />
        </mxCell>
        <mxCell id="uhs0hdpgMSpCMbtizzQa-30" value="&lt;u&gt;RoomID&lt;/u&gt;" style="ellipse;whiteSpace=wrap;html=1;" vertex="1" parent="1">
          <mxGeometry x="325" y="1485" width="70" height="50" as="geometry" />
        </mxCell>
        <mxCell id="uhs0hdpgMSpCMbtizzQa-31" value="RoomName" style="ellipse;whiteSpace=wrap;html=1;" vertex="1" parent="1">
          <mxGeometry x="385" y="1440" width="70" height="50" as="geometry" />
        </mxCell>
        <mxCell id="uhs0hdpgMSpCMbtizzQa-32" value="Capacity" style="ellipse;whiteSpace=wrap;html=1;" vertex="1" parent="1">
          <mxGeometry x="545" y="1410" width="70" height="50" as="geometry" />
        </mxCell>
        <mxCell id="uhs0hdpgMSpCMbtizzQa-33" value="RoomType" style="ellipse;whiteSpace=wrap;html=1;" vertex="1" parent="1">
          <mxGeometry x="460" y="1410" width="70" height="50" as="geometry" />
        </mxCell>
        <mxCell id="uhs0hdpgMSpCMbtizzQa-34" value="Location" style="ellipse;whiteSpace=wrap;html=1;" vertex="1" parent="1">
          <mxGeometry x="595" y="1460" width="70" height="50" as="geometry" />
        </mxCell>
        <mxCell id="uhs0hdpgMSpCMbtizzQa-35" value="" style="endArrow=none;html=1;rounded=0;entryX=0.5;entryY=0;entryDx=0;entryDy=0;exitX=0.5;exitY=1;exitDx=0;exitDy=0;" edge="1" parent="1" source="uhs0hdpgMSpCMbtizzQa-30" target="uhs0hdpgMSpCMbtizzQa-2">
          <mxGeometry width="50" height="50" relative="1" as="geometry">
            <mxPoint x="85" y="1580" as="sourcePoint" />
            <mxPoint x="250" y="1545" as="targetPoint" />
          </mxGeometry>
        </mxCell>
        <mxCell id="uhs0hdpgMSpCMbtizzQa-36" value="" style="endArrow=none;html=1;rounded=0;entryX=0.5;entryY=0;entryDx=0;entryDy=0;exitX=0.5;exitY=1;exitDx=0;exitDy=0;" edge="1" parent="1" source="uhs0hdpgMSpCMbtizzQa-31" target="uhs0hdpgMSpCMbtizzQa-2">
          <mxGeometry width="50" height="50" relative="1" as="geometry">
            <mxPoint x="370" y="1545" as="sourcePoint" />
            <mxPoint x="545" y="1580" as="targetPoint" />
          </mxGeometry>
        </mxCell>
        <mxCell id="uhs0hdpgMSpCMbtizzQa-37" value="" style="endArrow=none;html=1;rounded=0;entryX=0.5;entryY=0;entryDx=0;entryDy=0;exitX=0.5;exitY=1;exitDx=0;exitDy=0;" edge="1" parent="1" source="uhs0hdpgMSpCMbtizzQa-33" target="uhs0hdpgMSpCMbtizzQa-2">
          <mxGeometry width="50" height="50" relative="1" as="geometry">
            <mxPoint x="430" y="1500" as="sourcePoint" />
            <mxPoint x="545" y="1580" as="targetPoint" />
          </mxGeometry>
        </mxCell>
        <mxCell id="uhs0hdpgMSpCMbtizzQa-38" value="" style="endArrow=none;html=1;rounded=0;entryX=0.5;entryY=0;entryDx=0;entryDy=0;exitX=0.5;exitY=1;exitDx=0;exitDy=0;" edge="1" parent="1" source="uhs0hdpgMSpCMbtizzQa-32" target="uhs0hdpgMSpCMbtizzQa-2">
          <mxGeometry width="50" height="50" relative="1" as="geometry">
            <mxPoint x="505" y="1470" as="sourcePoint" />
            <mxPoint x="545" y="1580" as="targetPoint" />
          </mxGeometry>
        </mxCell>
        <mxCell id="uhs0hdpgMSpCMbtizzQa-39" value="" style="endArrow=none;html=1;rounded=0;entryX=0.5;entryY=0;entryDx=0;entryDy=0;exitX=0.5;exitY=1;exitDx=0;exitDy=0;" edge="1" parent="1" source="uhs0hdpgMSpCMbtizzQa-34" target="uhs0hdpgMSpCMbtizzQa-2">
          <mxGeometry width="50" height="50" relative="1" as="geometry">
            <mxPoint x="590" y="1470" as="sourcePoint" />
            <mxPoint x="545" y="1580" as="targetPoint" />
          </mxGeometry>
        </mxCell>
        <mxCell id="uhs0hdpgMSpCMbtizzQa-40" value="&lt;u&gt;SubjectID&lt;/u&gt;" style="ellipse;whiteSpace=wrap;html=1;" vertex="1" parent="1">
          <mxGeometry x="365" y="2510" width="70" height="50" as="geometry" />
        </mxCell>
        <mxCell id="uhs0hdpgMSpCMbtizzQa-41" value="SubjectName" style="ellipse;whiteSpace=wrap;html=1;" vertex="1" parent="1">
          <mxGeometry x="495" y="2520" width="79" height="50" as="geometry" />
        </mxCell>
        <mxCell id="uhs0hdpgMSpCMbtizzQa-42" value="Credits" style="ellipse;whiteSpace=wrap;html=1;" vertex="1" parent="1">
          <mxGeometry x="625" y="2520" width="70" height="50" as="geometry" />
        </mxCell>
        <mxCell id="uhs0hdpgMSpCMbtizzQa-43" value="" style="endArrow=none;html=1;rounded=0;entryX=0.5;entryY=1;entryDx=0;entryDy=0;exitX=0.5;exitY=0;exitDx=0;exitDy=0;" edge="1" parent="1" source="uhs0hdpgMSpCMbtizzQa-41" target="uhs0hdpgMSpCMbtizzQa-5">
          <mxGeometry width="50" height="50" relative="1" as="geometry">
            <mxPoint x="534" y="2520" as="sourcePoint" />
            <mxPoint x="534" y="2470" as="targetPoint" />
          </mxGeometry>
        </mxCell>
        <mxCell id="uhs0hdpgMSpCMbtizzQa-44" value="" style="endArrow=none;html=1;rounded=0;entryX=0.5;entryY=1;entryDx=0;entryDy=0;exitX=0.5;exitY=0;exitDx=0;exitDy=0;" edge="1" parent="1" source="uhs0hdpgMSpCMbtizzQa-40" target="uhs0hdpgMSpCMbtizzQa-5">
          <mxGeometry width="50" height="50" relative="1" as="geometry">
            <mxPoint x="544" y="2530" as="sourcePoint" />
            <mxPoint x="544" y="2460" as="targetPoint" />
          </mxGeometry>
        </mxCell>
        <mxCell id="uhs0hdpgMSpCMbtizzQa-45" value="" style="endArrow=none;html=1;rounded=0;exitX=0.5;exitY=0;exitDx=0;exitDy=0;" edge="1" parent="1" source="uhs0hdpgMSpCMbtizzQa-42">
          <mxGeometry width="50" height="50" relative="1" as="geometry">
            <mxPoint x="499" y="2530" as="sourcePoint" />
            <mxPoint x="534" y="2450" as="targetPoint" />
          </mxGeometry>
        </mxCell>
        <mxCell id="uhs0hdpgMSpCMbtizzQa-46" value="&lt;u&gt;CourseID&lt;/u&gt;" style="ellipse;whiteSpace=wrap;html=1;" vertex="1" parent="1">
          <mxGeometry x="365" y="1920.5" width="70" height="50" as="geometry" />
        </mxCell>
        <mxCell id="uhs0hdpgMSpCMbtizzQa-47" value="Periods" style="ellipse;whiteSpace=wrap;html=1;" vertex="1" parent="1">
          <mxGeometry x="435" y="1880.5" width="70" height="50" as="geometry" />
        </mxCell>
        <mxCell id="uhs0hdpgMSpCMbtizzQa-48" value="ClassName" style="ellipse;whiteSpace=wrap;html=1;" vertex="1" parent="1">
          <mxGeometry x="555" y="1880.5" width="70" height="50" as="geometry" />
        </mxCell>
        <mxCell id="uhs0hdpgMSpCMbtizzQa-49" value="Cohort" style="ellipse;whiteSpace=wrap;html=1;" vertex="1" parent="1">
          <mxGeometry x="625" y="1920.5" width="70" height="50" as="geometry" />
        </mxCell>
        <mxCell id="uhs0hdpgMSpCMbtizzQa-50" value="ClassSize" style="ellipse;whiteSpace=wrap;html=1;" vertex="1" parent="1">
          <mxGeometry x="349" y="2100" width="70" height="50" as="geometry" />
        </mxCell>
        <mxCell id="uhs0hdpgMSpCMbtizzQa-51" value="ClassType" style="ellipse;whiteSpace=wrap;html=1;" vertex="1" parent="1">
          <mxGeometry x="448" y="2100" width="70" height="50" as="geometry" />
        </mxCell>
        <mxCell id="uhs0hdpgMSpCMbtizzQa-52" value="" style="endArrow=none;html=1;rounded=0;exitX=0.5;exitY=0;exitDx=0;exitDy=0;entryX=0.5;entryY=1;entryDx=0;entryDy=0;" edge="1" parent="1" source="uhs0hdpgMSpCMbtizzQa-4" target="uhs0hdpgMSpCMbtizzQa-46">
          <mxGeometry width="50" height="50" relative="1" as="geometry">
            <mxPoint x="505" y="1969.5" as="sourcePoint" />
            <mxPoint x="555" y="1919.5" as="targetPoint" />
          </mxGeometry>
        </mxCell>
        <mxCell id="uhs0hdpgMSpCMbtizzQa-53" value="" style="endArrow=none;html=1;rounded=0;exitX=0.5;exitY=0;exitDx=0;exitDy=0;entryX=0.5;entryY=1;entryDx=0;entryDy=0;" edge="1" parent="1" source="uhs0hdpgMSpCMbtizzQa-4" target="uhs0hdpgMSpCMbtizzQa-47">
          <mxGeometry width="50" height="50" relative="1" as="geometry">
            <mxPoint x="545" y="2009.5" as="sourcePoint" />
            <mxPoint x="420" y="1999.5" as="targetPoint" />
          </mxGeometry>
        </mxCell>
        <mxCell id="uhs0hdpgMSpCMbtizzQa-54" value="" style="endArrow=none;html=1;rounded=0;exitX=0.5;exitY=0;exitDx=0;exitDy=0;entryX=0.5;entryY=1;entryDx=0;entryDy=0;" edge="1" parent="1" source="uhs0hdpgMSpCMbtizzQa-4" target="uhs0hdpgMSpCMbtizzQa-48">
          <mxGeometry width="50" height="50" relative="1" as="geometry">
            <mxPoint x="545" y="2009.5" as="sourcePoint" />
            <mxPoint x="490" y="1940.5" as="targetPoint" />
          </mxGeometry>
        </mxCell>
        <mxCell id="uhs0hdpgMSpCMbtizzQa-55" value="" style="endArrow=none;html=1;rounded=0;entryX=0.5;entryY=1;entryDx=0;entryDy=0;" edge="1" parent="1" target="uhs0hdpgMSpCMbtizzQa-49">
          <mxGeometry width="50" height="50" relative="1" as="geometry">
            <mxPoint x="535" y="1999.5" as="sourcePoint" />
            <mxPoint x="580" y="1940.5" as="targetPoint" />
          </mxGeometry>
        </mxCell>
        <mxCell id="uhs0hdpgMSpCMbtizzQa-56" value="" style="endArrow=none;html=1;rounded=0;exitX=0.5;exitY=1;exitDx=0;exitDy=0;entryX=0.5;entryY=0;entryDx=0;entryDy=0;" edge="1" parent="1" source="uhs0hdpgMSpCMbtizzQa-4" target="uhs0hdpgMSpCMbtizzQa-50">
          <mxGeometry width="50" height="50" relative="1" as="geometry">
            <mxPoint x="545" y="2009.5" as="sourcePoint" />
            <mxPoint x="410" y="1980.5" as="targetPoint" />
          </mxGeometry>
        </mxCell>
        <mxCell id="uhs0hdpgMSpCMbtizzQa-57" value="" style="endArrow=none;html=1;rounded=0;exitX=0.5;exitY=1;exitDx=0;exitDy=0;entryX=0.5;entryY=0;entryDx=0;entryDy=0;" edge="1" parent="1" source="uhs0hdpgMSpCMbtizzQa-4" target="uhs0hdpgMSpCMbtizzQa-51">
          <mxGeometry width="50" height="50" relative="1" as="geometry">
            <mxPoint x="545" y="2069.5" as="sourcePoint" />
            <mxPoint x="520" y="2129.5" as="targetPoint" />
          </mxGeometry>
        </mxCell>
        <mxCell id="uhs0hdpgMSpCMbtizzQa-58" value="&lt;u&gt;ScheduleID&lt;/u&gt;" style="ellipse;whiteSpace=wrap;html=1;" vertex="1" parent="1">
          <mxGeometry x="875" y="2090" width="70" height="50" as="geometry" />
        </mxCell>
        <mxCell id="uhs0hdpgMSpCMbtizzQa-59" value="Semeter" style="ellipse;whiteSpace=wrap;html=1;" vertex="1" parent="1">
          <mxGeometry x="980" y="2130" width="70" height="50" as="geometry" />
        </mxCell>
        <mxCell id="uhs0hdpgMSpCMbtizzQa-60" value="Year" style="ellipse;whiteSpace=wrap;html=1;" vertex="1" parent="1">
          <mxGeometry x="1085" y="2090" width="70" height="50" as="geometry" />
        </mxCell>
        <mxCell id="uhs0hdpgMSpCMbtizzQa-61" value="" style="endArrow=none;html=1;rounded=0;entryX=0.5;entryY=1;entryDx=0;entryDy=0;exitX=0.5;exitY=0;exitDx=0;exitDy=0;" edge="1" parent="1" source="uhs0hdpgMSpCMbtizzQa-58" target="uhs0hdpgMSpCMbtizzQa-6">
          <mxGeometry width="50" height="50" relative="1" as="geometry">
            <mxPoint x="1045" y="2149.5" as="sourcePoint" />
            <mxPoint x="1095" y="2099.5" as="targetPoint" />
          </mxGeometry>
        </mxCell>
        <mxCell id="uhs0hdpgMSpCMbtizzQa-62" value="" style="endArrow=none;html=1;rounded=0;entryX=0.5;entryY=1;entryDx=0;entryDy=0;exitX=0.5;exitY=0;exitDx=0;exitDy=0;" edge="1" parent="1" source="uhs0hdpgMSpCMbtizzQa-59" target="uhs0hdpgMSpCMbtizzQa-6">
          <mxGeometry width="50" height="50" relative="1" as="geometry">
            <mxPoint x="990" y="2109.5" as="sourcePoint" />
            <mxPoint x="1095" y="2069.5" as="targetPoint" />
          </mxGeometry>
        </mxCell>
        <mxCell id="uhs0hdpgMSpCMbtizzQa-63" value="" style="endArrow=none;html=1;rounded=0;entryX=0.5;entryY=1;entryDx=0;entryDy=0;exitX=0.5;exitY=0;exitDx=0;exitDy=0;" edge="1" parent="1" source="uhs0hdpgMSpCMbtizzQa-60" target="uhs0hdpgMSpCMbtizzQa-6">
          <mxGeometry width="50" height="50" relative="1" as="geometry">
            <mxPoint x="1090" y="2139.5" as="sourcePoint" />
            <mxPoint x="1095" y="2069.5" as="targetPoint" />
          </mxGeometry>
        </mxCell>
        <mxCell id="uhs0hdpgMSpCMbtizzQa-64" value="" style="endArrow=none;html=1;rounded=0;exitX=0.5;exitY=0;exitDx=0;exitDy=0;entryX=0.5;entryY=1;entryDx=0;entryDy=0;" edge="1" parent="1" source="uhs0hdpgMSpCMbtizzQa-4" target="uhs0hdpgMSpCMbtizzQa-2">
          <mxGeometry width="50" height="50" relative="1" as="geometry">
            <mxPoint x="525" y="2010" as="sourcePoint" />
            <mxPoint x="525" y="1645" as="targetPoint" />
          </mxGeometry>
        </mxCell>
        <mxCell id="uhs0hdpgMSpCMbtizzQa-65" value="takes place" style="rhombus;whiteSpace=wrap;html=1;" vertex="1" parent="1">
          <mxGeometry x="495" y="1761" width="80" height="80" as="geometry" />
        </mxCell>
        <mxCell id="uhs0hdpgMSpCMbtizzQa-66" value="" style="endArrow=none;html=1;rounded=0;exitX=1;exitY=0.5;exitDx=0;exitDy=0;entryX=0;entryY=0.5;entryDx=0;entryDy=0;" edge="1" parent="1" source="uhs0hdpgMSpCMbtizzQa-3" target="uhs0hdpgMSpCMbtizzQa-4">
          <mxGeometry width="50" height="50" relative="1" as="geometry">
            <mxPoint x="85" y="2005" as="sourcePoint" />
            <mxPoint x="85" y="1640" as="targetPoint" />
          </mxGeometry>
        </mxCell>
        <mxCell id="uhs0hdpgMSpCMbtizzQa-67" value="teaches" style="rhombus;whiteSpace=wrap;html=1;" vertex="1" parent="1">
          <mxGeometry x="255" y="1990" width="80" height="80" as="geometry" />
        </mxCell>
        <mxCell id="uhs0hdpgMSpCMbtizzQa-68" value="" style="endArrow=none;html=1;rounded=0;entryX=0.5;entryY=1;entryDx=0;entryDy=0;exitX=0.5;exitY=0;exitDx=0;exitDy=0;" edge="1" parent="1" source="uhs0hdpgMSpCMbtizzQa-5" target="uhs0hdpgMSpCMbtizzQa-4">
          <mxGeometry width="50" height="50" relative="1" as="geometry">
            <mxPoint x="415" y="2290" as="sourcePoint" />
            <mxPoint x="465" y="2240" as="targetPoint" />
          </mxGeometry>
        </mxCell>
        <mxCell id="uhs0hdpgMSpCMbtizzQa-69" value="has" style="rhombus;whiteSpace=wrap;html=1;" vertex="1" parent="1">
          <mxGeometry x="494" y="2215" width="80" height="80" as="geometry" />
        </mxCell>
        <mxCell id="uhs0hdpgMSpCMbtizzQa-70" value="" style="endArrow=none;html=1;rounded=0;exitX=1;exitY=0.5;exitDx=0;exitDy=0;entryX=0;entryY=0.5;entryDx=0;entryDy=0;" edge="1" parent="1" source="uhs0hdpgMSpCMbtizzQa-72" target="uhs0hdpgMSpCMbtizzQa-6">
          <mxGeometry width="50" height="50" relative="1" as="geometry">
            <mxPoint x="795" y="2110" as="sourcePoint" />
            <mxPoint x="845" y="2060" as="targetPoint" />
          </mxGeometry>
        </mxCell>
        <mxCell id="uhs0hdpgMSpCMbtizzQa-71" value="" style="endArrow=none;html=1;rounded=0;exitX=1;exitY=0.5;exitDx=0;exitDy=0;entryX=0;entryY=0.5;entryDx=0;entryDy=0;" edge="1" parent="1" source="uhs0hdpgMSpCMbtizzQa-4" target="uhs0hdpgMSpCMbtizzQa-72">
          <mxGeometry width="50" height="50" relative="1" as="geometry">
            <mxPoint x="595" y="2030" as="sourcePoint" />
            <mxPoint x="1025" y="2031" as="targetPoint" />
          </mxGeometry>
        </mxCell>
        <mxCell id="uhs0hdpgMSpCMbtizzQa-72" value="has" style="rhombus;whiteSpace=wrap;html=1;" vertex="1" parent="1">
          <mxGeometry x="745" y="1989.5" width="80" height="80" as="geometry" />
        </mxCell>
        <mxCell id="uhs0hdpgMSpCMbtizzQa-73" value="&lt;font style=&quot;font-size: 18px;&quot;&gt;&lt;b&gt;n&lt;/b&gt;&lt;/font&gt;" style="text;html=1;align=center;verticalAlign=middle;whiteSpace=wrap;rounded=0;" vertex="1" parent="1">
          <mxGeometry x="15" y="1740" width="60" height="30" as="geometry" />
        </mxCell>
        <mxCell id="uhs0hdpgMSpCMbtizzQa-74" value="&lt;font style=&quot;font-size: 18px;&quot;&gt;&lt;b&gt;1&lt;/b&gt;&lt;/font&gt;" style="text;html=1;align=center;verticalAlign=middle;whiteSpace=wrap;rounded=0;" vertex="1" parent="1">
          <mxGeometry x="205" y="1999.5" width="60" height="30" as="geometry" />
        </mxCell>
        <mxCell id="uhs0hdpgMSpCMbtizzQa-75" value="&lt;b&gt;&lt;font style=&quot;font-size: 18px;&quot;&gt;n&lt;/font&gt;&lt;/b&gt;" style="text;html=1;align=center;verticalAlign=middle;whiteSpace=wrap;rounded=0;" vertex="1" parent="1">
          <mxGeometry x="325" y="1999.5" width="60" height="30" as="geometry" />
        </mxCell>
        <mxCell id="uhs0hdpgMSpCMbtizzQa-76" value="&lt;b&gt;&lt;font style=&quot;font-size: 18px;&quot;&gt;n&lt;/font&gt;&lt;/b&gt;" style="text;html=1;align=center;verticalAlign=middle;whiteSpace=wrap;rounded=0;" vertex="1" parent="1">
          <mxGeometry x="524" y="1835" width="60" height="30" as="geometry" />
        </mxCell>
        <mxCell id="uhs0hdpgMSpCMbtizzQa-77" value="&lt;font style=&quot;font-size: 18px;&quot;&gt;&lt;b&gt;1&lt;/b&gt;&lt;/font&gt;" style="text;html=1;align=center;verticalAlign=middle;whiteSpace=wrap;rounded=0;" vertex="1" parent="1">
          <mxGeometry x="524" y="1740" width="60" height="30" as="geometry" />
        </mxCell>
        <mxCell id="uhs0hdpgMSpCMbtizzQa-78" value="&lt;b&gt;&lt;font style=&quot;font-size: 18px;&quot;&gt;1&lt;/font&gt;&lt;/b&gt;" style="text;html=1;align=center;verticalAlign=middle;whiteSpace=wrap;rounded=0;" vertex="1" parent="1">
          <mxGeometry x="485" y="2295" width="60" height="30" as="geometry" />
        </mxCell>
        <mxCell id="uhs0hdpgMSpCMbtizzQa-79" value="&lt;b&gt;&lt;font style=&quot;font-size: 18px;&quot;&gt;n&lt;/font&gt;&lt;/b&gt;" style="text;html=1;align=center;verticalAlign=middle;whiteSpace=wrap;rounded=0;" vertex="1" parent="1">
          <mxGeometry x="485" y="2190" width="60" height="30" as="geometry" />
        </mxCell>
        <mxCell id="uhs0hdpgMSpCMbtizzQa-80" value="&lt;b&gt;&lt;font style=&quot;font-size: 18px;&quot;&gt;1&lt;/font&gt;&lt;/b&gt;" style="text;html=1;align=center;verticalAlign=middle;whiteSpace=wrap;rounded=0;" vertex="1" parent="1">
          <mxGeometry x="805" y="1999.5" width="60" height="30" as="geometry" />
        </mxCell>
        <mxCell id="uhs0hdpgMSpCMbtizzQa-81" value="&lt;font style=&quot;font-size: 18px;&quot;&gt;&lt;b&gt;n&lt;/b&gt;&lt;/font&gt;" style="text;html=1;align=center;verticalAlign=middle;whiteSpace=wrap;rounded=0;" vertex="1" parent="1">
          <mxGeometry x="695" y="2000" width="60" height="30" as="geometry" />
        </mxCell>
        <mxCell id="uhs0hdpgMSpCMbtizzQa-82" value="CourseType" style="ellipse;whiteSpace=wrap;html=1;" vertex="1" parent="1">
          <mxGeometry x="555" y="2100" width="70" height="50" as="geometry" />
        </mxCell>
        <mxCell id="uhs0hdpgMSpCMbtizzQa-83" value="" style="endArrow=none;html=1;rounded=0;exitX=0.5;exitY=1;exitDx=0;exitDy=0;entryX=0.5;entryY=0;entryDx=0;entryDy=0;" edge="1" parent="1" source="uhs0hdpgMSpCMbtizzQa-4" target="uhs0hdpgMSpCMbtizzQa-82">
          <mxGeometry width="50" height="50" relative="1" as="geometry">
            <mxPoint x="545" y="2070" as="sourcePoint" />
            <mxPoint x="493" y="2110" as="targetPoint" />
          </mxGeometry>
        </mxCell>
        <mxCell id="uhs0hdpgMSpCMbtizzQa-84" value="CourseType" style="shape=partialRectangle;connectable=0;fillColor=none;top=0;left=0;bottom=0;right=0;align=left;spacingLeft=6;overflow=hidden;whiteSpace=wrap;html=1;" vertex="1" parent="1">
          <mxGeometry x="350" y="780" width="150" height="30" as="geometry">
            <mxRectangle width="150" height="30" as="alternateBounds" />
          </mxGeometry>
        </mxCell>
        <mxCell id="uhs0hdpgMSpCMbtizzQa-85" value="NOTIFICATION" style="shape=table;startSize=30;container=1;collapsible=1;childLayout=tableLayout;fixedRows=1;rowLines=0;fontStyle=1;align=center;resizeLast=1;html=1;fillColor=#FFFFFF;" vertex="1" parent="1">
          <mxGeometry x="-410" y="350" width="180" height="290" as="geometry" />
        </mxCell>
        <mxCell id="uhs0hdpgMSpCMbtizzQa-86" value="" style="shape=tableRow;horizontal=0;startSize=0;swimlaneHead=0;swimlaneBody=0;fillColor=none;collapsible=0;dropTarget=0;points=[[0,0.5],[1,0.5]];portConstraint=eastwest;top=0;left=0;right=0;bottom=1;" vertex="1" parent="uhs0hdpgMSpCMbtizzQa-85">
          <mxGeometry y="30" width="180" height="30" as="geometry" />
        </mxCell>
        <mxCell id="uhs0hdpgMSpCMbtizzQa-87" value="PK" style="shape=partialRectangle;connectable=0;fillColor=none;top=0;left=0;bottom=0;right=0;fontStyle=1;overflow=hidden;whiteSpace=wrap;html=1;" vertex="1" parent="uhs0hdpgMSpCMbtizzQa-86">
          <mxGeometry width="30" height="30" as="geometry">
            <mxRectangle width="30" height="30" as="alternateBounds" />
          </mxGeometry>
        </mxCell>
        <mxCell id="uhs0hdpgMSpCMbtizzQa-88" value="NotiID" style="shape=partialRectangle;connectable=0;fillColor=none;top=0;left=0;bottom=0;right=0;align=left;spacingLeft=6;fontStyle=5;overflow=hidden;whiteSpace=wrap;html=1;" vertex="1" parent="uhs0hdpgMSpCMbtizzQa-86">
          <mxGeometry x="30" width="150" height="30" as="geometry">
            <mxRectangle width="150" height="30" as="alternateBounds" />
          </mxGeometry>
        </mxCell>
        <mxCell id="uhs0hdpgMSpCMbtizzQa-89" value="" style="shape=tableRow;horizontal=0;startSize=0;swimlaneHead=0;swimlaneBody=0;fillColor=none;collapsible=0;dropTarget=0;points=[[0,0.5],[1,0.5]];portConstraint=eastwest;top=0;left=0;right=0;bottom=0;" vertex="1" parent="uhs0hdpgMSpCMbtizzQa-85">
          <mxGeometry y="60" width="180" height="30" as="geometry" />
        </mxCell>
        <mxCell id="uhs0hdpgMSpCMbtizzQa-90" value="" style="shape=partialRectangle;connectable=0;fillColor=none;top=0;left=0;bottom=0;right=0;editable=1;overflow=hidden;whiteSpace=wrap;html=1;" vertex="1" parent="uhs0hdpgMSpCMbtizzQa-89">
          <mxGeometry width="30" height="30" as="geometry">
            <mxRectangle width="30" height="30" as="alternateBounds" />
          </mxGeometry>
        </mxCell>
        <mxCell id="uhs0hdpgMSpCMbtizzQa-91" value="LecturerID" style="shape=partialRectangle;connectable=0;fillColor=none;top=0;left=0;bottom=0;right=0;align=left;spacingLeft=6;overflow=hidden;whiteSpace=wrap;html=1;" vertex="1" parent="uhs0hdpgMSpCMbtizzQa-89">
          <mxGeometry x="30" width="150" height="30" as="geometry">
            <mxRectangle width="150" height="30" as="alternateBounds" />
          </mxGeometry>
        </mxCell>
        <mxCell id="uhs0hdpgMSpCMbtizzQa-92" value="" style="shape=tableRow;horizontal=0;startSize=0;swimlaneHead=0;swimlaneBody=0;fillColor=none;collapsible=0;dropTarget=0;points=[[0,0.5],[1,0.5]];portConstraint=eastwest;top=0;left=0;right=0;bottom=0;" vertex="1" parent="uhs0hdpgMSpCMbtizzQa-85">
          <mxGeometry y="90" width="180" height="30" as="geometry" />
        </mxCell>
        <mxCell id="uhs0hdpgMSpCMbtizzQa-93" value="" style="shape=partialRectangle;connectable=0;fillColor=none;top=0;left=0;bottom=0;right=0;editable=1;overflow=hidden;whiteSpace=wrap;html=1;" vertex="1" parent="uhs0hdpgMSpCMbtizzQa-92">
          <mxGeometry width="30" height="30" as="geometry">
            <mxRectangle width="30" height="30" as="alternateBounds" />
          </mxGeometry>
        </mxCell>
        <mxCell id="uhs0hdpgMSpCMbtizzQa-94" value="Title" style="shape=partialRectangle;connectable=0;fillColor=none;top=0;left=0;bottom=0;right=0;align=left;spacingLeft=6;overflow=hidden;whiteSpace=wrap;html=1;" vertex="1" parent="uhs0hdpgMSpCMbtizzQa-92">
          <mxGeometry x="30" width="150" height="30" as="geometry">
            <mxRectangle width="150" height="30" as="alternateBounds" />
          </mxGeometry>
        </mxCell>
        <mxCell id="uhs0hdpgMSpCMbtizzQa-95" value="" style="shape=tableRow;horizontal=0;startSize=0;swimlaneHead=0;swimlaneBody=0;fillColor=none;collapsible=0;dropTarget=0;points=[[0,0.5],[1,0.5]];portConstraint=eastwest;top=0;left=0;right=0;bottom=0;" vertex="1" parent="uhs0hdpgMSpCMbtizzQa-85">
          <mxGeometry y="120" width="180" height="30" as="geometry" />
        </mxCell>
        <mxCell id="uhs0hdpgMSpCMbtizzQa-96" value="" style="shape=partialRectangle;connectable=0;fillColor=none;top=0;left=0;bottom=0;right=0;editable=1;overflow=hidden;whiteSpace=wrap;html=1;" vertex="1" parent="uhs0hdpgMSpCMbtizzQa-95">
          <mxGeometry width="30" height="30" as="geometry">
            <mxRectangle width="30" height="30" as="alternateBounds" />
          </mxGeometry>
        </mxCell>
        <mxCell id="uhs0hdpgMSpCMbtizzQa-97" value="NotiType" style="shape=partialRectangle;connectable=0;fillColor=none;top=0;left=0;bottom=0;right=0;align=left;spacingLeft=6;overflow=hidden;whiteSpace=wrap;html=1;" vertex="1" parent="uhs0hdpgMSpCMbtizzQa-95">
          <mxGeometry x="30" width="150" height="30" as="geometry">
            <mxRectangle width="150" height="30" as="alternateBounds" />
          </mxGeometry>
        </mxCell>
        <mxCell id="uhs0hdpgMSpCMbtizzQa-98" value="Description" style="shape=partialRectangle;connectable=0;fillColor=none;top=0;left=0;bottom=0;right=0;align=left;spacingLeft=6;overflow=hidden;whiteSpace=wrap;html=1;" vertex="1" parent="1">
          <mxGeometry x="-380" y="500" width="150" height="30" as="geometry">
            <mxRectangle width="150" height="30" as="alternateBounds" />
          </mxGeometry>
        </mxCell>
        <mxCell id="uhs0hdpgMSpCMbtizzQa-99" value="Creator" style="shape=partialRectangle;connectable=0;fillColor=none;top=0;left=0;bottom=0;right=0;align=left;spacingLeft=6;overflow=hidden;whiteSpace=wrap;html=1;" vertex="1" parent="1">
          <mxGeometry x="-380" y="531" width="150" height="30" as="geometry">
            <mxRectangle width="150" height="30" as="alternateBounds" />
          </mxGeometry>
        </mxCell>
        <mxCell id="uhs0hdpgMSpCMbtizzQa-100" value="Time" style="shape=partialRectangle;connectable=0;fillColor=none;top=0;left=0;bottom=0;right=0;align=left;spacingLeft=6;overflow=hidden;whiteSpace=wrap;html=1;" vertex="1" parent="1">
          <mxGeometry x="-380" y="561" width="150" height="30" as="geometry">
            <mxRectangle width="150" height="30" as="alternateBounds" />
          </mxGeometry>
        </mxCell>
        <mxCell id="uhs0hdpgMSpCMbtizzQa-101" value="recieves" style="rhombus;whiteSpace=wrap;html=1;" vertex="1" parent="1">
          <mxGeometry x="-130" y="385" width="80" height="80" as="geometry" />
        </mxCell>
        <mxCell id="uhs0hdpgMSpCMbtizzQa-102" value="" style="endArrow=none;html=1;rounded=0;exitX=1;exitY=0.5;exitDx=0;exitDy=0;entryX=0;entryY=0.5;entryDx=0;entryDy=0;" edge="1" parent="1" source="uhs0hdpgMSpCMbtizzQa-89" target="uhs0hdpgMSpCMbtizzQa-101">
          <mxGeometry width="50" height="50" relative="1" as="geometry">
            <mxPoint x="-180" y="630" as="sourcePoint" />
            <mxPoint x="-130" y="425" as="targetPoint" />
          </mxGeometry>
        </mxCell>
        <mxCell id="uhs0hdpgMSpCMbtizzQa-104" value="FK1" style="shape=partialRectangle;connectable=0;fillColor=none;top=0;left=0;bottom=0;right=0;fontStyle=1;overflow=hidden;whiteSpace=wrap;html=1;" vertex="1" parent="1">
          <mxGeometry x="-410" y="410" width="30" height="30" as="geometry">
            <mxRectangle width="30" height="30" as="alternateBounds" />
          </mxGeometry>
        </mxCell>
        <mxCell id="uhs0hdpgMSpCMbtizzQa-105" value="" style="endArrow=none;html=1;rounded=0;exitX=1;exitY=0.5;exitDx=0;exitDy=0;entryX=0;entryY=0.5;entryDx=0;entryDy=0;" edge="1" parent="1" source="uhs0hdpgMSpCMbtizzQa-101" target="cto1Rn3HJPF4hdV79vc3-2">
          <mxGeometry width="50" height="50" relative="1" as="geometry">
            <mxPoint x="-100" y="485.86" as="sourcePoint" />
            <mxPoint y="485.86" as="targetPoint" />
            <Array as="points">
              <mxPoint x="-20" y="425" />
              <mxPoint x="-20" y="395" />
            </Array>
          </mxGeometry>
        </mxCell>
        <mxCell id="uhs0hdpgMSpCMbtizzQa-106" value="1" style="text;html=1;align=center;verticalAlign=middle;whiteSpace=wrap;rounded=0;" vertex="1" parent="1">
          <mxGeometry x="-70" y="400" width="60" height="30" as="geometry" />
        </mxCell>
        <mxCell id="uhs0hdpgMSpCMbtizzQa-107" value="N" style="text;html=1;align=center;verticalAlign=middle;whiteSpace=wrap;rounded=0;" vertex="1" parent="1">
          <mxGeometry x="-170" y="400" width="60" height="30" as="geometry" />
        </mxCell>
        <mxCell id="uhs0hdpgMSpCMbtizzQa-138" value="ADMIN ACCOUNT" style="shape=table;startSize=30;container=1;collapsible=1;childLayout=tableLayout;fixedRows=1;rowLines=0;fontStyle=1;align=center;resizeLast=1;html=1;" vertex="1" parent="1">
          <mxGeometry x="-340" y="880" width="180" height="180" as="geometry" />
        </mxCell>
        <mxCell id="uhs0hdpgMSpCMbtizzQa-139" value="" style="shape=tableRow;horizontal=0;startSize=0;swimlaneHead=0;swimlaneBody=0;fillColor=none;collapsible=0;dropTarget=0;points=[[0,0.5],[1,0.5]];portConstraint=eastwest;top=0;left=0;right=0;bottom=1;" vertex="1" parent="uhs0hdpgMSpCMbtizzQa-138">
          <mxGeometry y="30" width="180" height="30" as="geometry" />
        </mxCell>
        <mxCell id="uhs0hdpgMSpCMbtizzQa-140" value="PK" style="shape=partialRectangle;connectable=0;fillColor=none;top=0;left=0;bottom=0;right=0;fontStyle=1;overflow=hidden;whiteSpace=wrap;html=1;" vertex="1" parent="uhs0hdpgMSpCMbtizzQa-139">
          <mxGeometry width="30" height="30" as="geometry">
            <mxRectangle width="30" height="30" as="alternateBounds" />
          </mxGeometry>
        </mxCell>
        <mxCell id="uhs0hdpgMSpCMbtizzQa-141" value="AdAccountID" style="shape=partialRectangle;connectable=0;fillColor=none;top=0;left=0;bottom=0;right=0;align=left;spacingLeft=6;fontStyle=5;overflow=hidden;whiteSpace=wrap;html=1;" vertex="1" parent="uhs0hdpgMSpCMbtizzQa-139">
          <mxGeometry x="30" width="150" height="30" as="geometry">
            <mxRectangle width="150" height="30" as="alternateBounds" />
          </mxGeometry>
        </mxCell>
        <mxCell id="uhs0hdpgMSpCMbtizzQa-142" value="" style="shape=tableRow;horizontal=0;startSize=0;swimlaneHead=0;swimlaneBody=0;fillColor=none;collapsible=0;dropTarget=0;points=[[0,0.5],[1,0.5]];portConstraint=eastwest;top=0;left=0;right=0;bottom=0;" vertex="1" parent="uhs0hdpgMSpCMbtizzQa-138">
          <mxGeometry y="60" width="180" height="30" as="geometry" />
        </mxCell>
        <mxCell id="uhs0hdpgMSpCMbtizzQa-143" value="" style="shape=partialRectangle;connectable=0;fillColor=none;top=0;left=0;bottom=0;right=0;editable=1;overflow=hidden;whiteSpace=wrap;html=1;" vertex="1" parent="uhs0hdpgMSpCMbtizzQa-142">
          <mxGeometry width="30" height="30" as="geometry">
            <mxRectangle width="30" height="30" as="alternateBounds" />
          </mxGeometry>
        </mxCell>
        <mxCell id="uhs0hdpgMSpCMbtizzQa-144" value="Username" style="shape=partialRectangle;connectable=0;fillColor=none;top=0;left=0;bottom=0;right=0;align=left;spacingLeft=6;overflow=hidden;whiteSpace=wrap;html=1;" vertex="1" parent="uhs0hdpgMSpCMbtizzQa-142">
          <mxGeometry x="30" width="150" height="30" as="geometry">
            <mxRectangle width="150" height="30" as="alternateBounds" />
          </mxGeometry>
        </mxCell>
        <mxCell id="uhs0hdpgMSpCMbtizzQa-145" value="" style="shape=tableRow;horizontal=0;startSize=0;swimlaneHead=0;swimlaneBody=0;fillColor=none;collapsible=0;dropTarget=0;points=[[0,0.5],[1,0.5]];portConstraint=eastwest;top=0;left=0;right=0;bottom=0;" vertex="1" parent="uhs0hdpgMSpCMbtizzQa-138">
          <mxGeometry y="90" width="180" height="30" as="geometry" />
        </mxCell>
        <mxCell id="uhs0hdpgMSpCMbtizzQa-146" value="" style="shape=partialRectangle;connectable=0;fillColor=none;top=0;left=0;bottom=0;right=0;editable=1;overflow=hidden;whiteSpace=wrap;html=1;" vertex="1" parent="uhs0hdpgMSpCMbtizzQa-145">
          <mxGeometry width="30" height="30" as="geometry">
            <mxRectangle width="30" height="30" as="alternateBounds" />
          </mxGeometry>
        </mxCell>
        <mxCell id="uhs0hdpgMSpCMbtizzQa-147" value="Password" style="shape=partialRectangle;connectable=0;fillColor=none;top=0;left=0;bottom=0;right=0;align=left;spacingLeft=6;overflow=hidden;whiteSpace=wrap;html=1;" vertex="1" parent="uhs0hdpgMSpCMbtizzQa-145">
          <mxGeometry x="30" width="150" height="30" as="geometry">
            <mxRectangle width="150" height="30" as="alternateBounds" />
          </mxGeometry>
        </mxCell>
        <mxCell id="uhs0hdpgMSpCMbtizzQa-148" value="" style="shape=tableRow;horizontal=0;startSize=0;swimlaneHead=0;swimlaneBody=0;fillColor=none;collapsible=0;dropTarget=0;points=[[0,0.5],[1,0.5]];portConstraint=eastwest;top=0;left=0;right=0;bottom=0;" vertex="1" parent="uhs0hdpgMSpCMbtizzQa-138">
          <mxGeometry y="120" width="180" height="30" as="geometry" />
        </mxCell>
        <mxCell id="uhs0hdpgMSpCMbtizzQa-149" value="" style="shape=partialRectangle;connectable=0;fillColor=none;top=0;left=0;bottom=0;right=0;editable=1;overflow=hidden;whiteSpace=wrap;html=1;" vertex="1" parent="uhs0hdpgMSpCMbtizzQa-148">
          <mxGeometry width="30" height="30" as="geometry">
            <mxRectangle width="30" height="30" as="alternateBounds" />
          </mxGeometry>
        </mxCell>
        <mxCell id="uhs0hdpgMSpCMbtizzQa-150" value="" style="shape=partialRectangle;connectable=0;fillColor=none;top=0;left=0;bottom=0;right=0;align=left;spacingLeft=6;overflow=hidden;whiteSpace=wrap;html=1;" vertex="1" parent="uhs0hdpgMSpCMbtizzQa-148">
          <mxGeometry x="30" width="150" height="30" as="geometry">
            <mxRectangle width="150" height="30" as="alternateBounds" />
          </mxGeometry>
        </mxCell>
        <mxCell id="uhs0hdpgMSpCMbtizzQa-151" value="Department" style="shape=partialRectangle;connectable=0;fillColor=none;top=0;left=0;bottom=0;right=0;align=left;spacingLeft=6;overflow=hidden;whiteSpace=wrap;html=1;" vertex="1" parent="1">
          <mxGeometry x="-310" y="1000" width="150" height="30" as="geometry">
            <mxRectangle width="150" height="30" as="alternateBounds" />
          </mxGeometry>
        </mxCell>
        <mxCell id="uhs0hdpgMSpCMbtizzQa-152" value="" style="endArrow=none;html=1;rounded=0;exitX=1;exitY=0.5;exitDx=0;exitDy=0;entryX=0;entryY=0.5;entryDx=0;entryDy=0;" edge="1" parent="1" target="uhs0hdpgMSpCMbtizzQa-153">
          <mxGeometry width="50" height="50" relative="1" as="geometry">
            <mxPoint x="-570" y="925" as="sourcePoint" />
            <mxPoint x="-450" y="940" as="targetPoint" />
          </mxGeometry>
        </mxCell>
        <mxCell id="uhs0hdpgMSpCMbtizzQa-153" value="recieves" style="rhombus;whiteSpace=wrap;html=1;" vertex="1" parent="1">
          <mxGeometry x="-493" y="885" width="80" height="80" as="geometry" />
        </mxCell>
        <mxCell id="uhs0hdpgMSpCMbtizzQa-154" value="" style="endArrow=none;html=1;rounded=0;exitX=1;exitY=0.5;exitDx=0;exitDy=0;entryX=0;entryY=0.5;entryDx=0;entryDy=0;" edge="1" parent="1" source="uhs0hdpgMSpCMbtizzQa-153" target="uhs0hdpgMSpCMbtizzQa-139">
          <mxGeometry width="50" height="50" relative="1" as="geometry">
            <mxPoint x="-490" y="1000" as="sourcePoint" />
            <mxPoint x="-413" y="1000" as="targetPoint" />
          </mxGeometry>
        </mxCell>
        <mxCell id="uhs0hdpgMSpCMbtizzQa-155" value="1" style="text;html=1;align=center;verticalAlign=middle;whiteSpace=wrap;rounded=0;" vertex="1" parent="1">
          <mxGeometry x="-430" y="900" width="60" height="30" as="geometry" />
        </mxCell>
        <mxCell id="uhs0hdpgMSpCMbtizzQa-158" value="N" style="text;html=1;align=center;verticalAlign=middle;whiteSpace=wrap;rounded=0;" vertex="1" parent="1">
          <mxGeometry x="-530" y="900" width="60" height="30" as="geometry" />
        </mxCell>
        <mxCell id="fGX5bED9PHSFNP7jN1Jc-1" value="NOTIFICATION" style="rounded=0;whiteSpace=wrap;html=1;" vertex="1" parent="1">
          <mxGeometry x="-620" y="1999.5" width="120" height="60" as="geometry" />
        </mxCell>
        <mxCell id="fGX5bED9PHSFNP7jN1Jc-19" value="&lt;u&gt;NotiID&lt;/u&gt;" style="ellipse;whiteSpace=wrap;html=1;" vertex="1" parent="1">
          <mxGeometry x="-730" y="2130" width="70" height="50" as="geometry" />
        </mxCell>
        <mxCell id="fGX5bED9PHSFNP7jN1Jc-20" value="Title" style="ellipse;whiteSpace=wrap;html=1;" vertex="1" parent="1">
          <mxGeometry x="-650" y="2150" width="90" height="50" as="geometry" />
        </mxCell>
        <mxCell id="fGX5bED9PHSFNP7jN1Jc-21" value="Description" style="ellipse;whiteSpace=wrap;html=1;" vertex="1" parent="1">
          <mxGeometry x="-455" y="2130" width="90" height="50" as="geometry" />
        </mxCell>
        <mxCell id="fGX5bED9PHSFNP7jN1Jc-22" value="Creator" style="ellipse;whiteSpace=wrap;html=1;" vertex="1" parent="1">
          <mxGeometry x="-730" y="1890" width="90" height="50" as="geometry" />
        </mxCell>
        <mxCell id="fGX5bED9PHSFNP7jN1Jc-23" value="Time" style="ellipse;whiteSpace=wrap;html=1;" vertex="1" parent="1">
          <mxGeometry x="-615" y="1865" width="90" height="50" as="geometry" />
        </mxCell>
        <mxCell id="fGX5bED9PHSFNP7jN1Jc-24" value="Date" style="ellipse;whiteSpace=wrap;html=1;" vertex="1" parent="1">
          <mxGeometry x="-495" y="1880.5" width="90" height="50" as="geometry" />
        </mxCell>
        <mxCell id="fGX5bED9PHSFNP7jN1Jc-28" value="" style="endArrow=none;html=1;rounded=0;entryX=0.5;entryY=1;entryDx=0;entryDy=0;exitX=0.5;exitY=0;exitDx=0;exitDy=0;" edge="1" parent="1" source="fGX5bED9PHSFNP7jN1Jc-19" target="fGX5bED9PHSFNP7jN1Jc-1">
          <mxGeometry width="50" height="50" relative="1" as="geometry">
            <mxPoint x="-630" y="2109.5" as="sourcePoint" />
            <mxPoint x="-580" y="2059.5" as="targetPoint" />
          </mxGeometry>
        </mxCell>
        <mxCell id="fGX5bED9PHSFNP7jN1Jc-29" value="" style="endArrow=none;html=1;rounded=0;exitX=0.5;exitY=0;exitDx=0;exitDy=0;" edge="1" parent="1" source="fGX5bED9PHSFNP7jN1Jc-20">
          <mxGeometry width="50" height="50" relative="1" as="geometry">
            <mxPoint x="-790" y="2119.5" as="sourcePoint" />
            <mxPoint x="-560" y="2059.5" as="targetPoint" />
          </mxGeometry>
        </mxCell>
        <mxCell id="fGX5bED9PHSFNP7jN1Jc-30" value="" style="endArrow=none;html=1;rounded=0;exitX=0.5;exitY=0;exitDx=0;exitDy=0;entryX=0.5;entryY=1;entryDx=0;entryDy=0;" edge="1" parent="1" source="fGX5bED9PHSFNP7jN1Jc-21" target="fGX5bED9PHSFNP7jN1Jc-1">
          <mxGeometry width="50" height="50" relative="1" as="geometry">
            <mxPoint x="-705" y="2149.5" as="sourcePoint" />
            <mxPoint x="-550" y="2069.5" as="targetPoint" />
          </mxGeometry>
        </mxCell>
        <mxCell id="fGX5bED9PHSFNP7jN1Jc-31" value="" style="endArrow=none;html=1;rounded=0;exitX=0.5;exitY=1;exitDx=0;exitDy=0;entryX=0.5;entryY=0;entryDx=0;entryDy=0;" edge="1" parent="1" source="fGX5bED9PHSFNP7jN1Jc-22" target="fGX5bED9PHSFNP7jN1Jc-1">
          <mxGeometry width="50" height="50" relative="1" as="geometry">
            <mxPoint x="-605" y="2169.5" as="sourcePoint" />
            <mxPoint x="-550" y="2069.5" as="targetPoint" />
          </mxGeometry>
        </mxCell>
        <mxCell id="fGX5bED9PHSFNP7jN1Jc-32" value="" style="endArrow=none;html=1;rounded=0;exitX=0.5;exitY=1;exitDx=0;exitDy=0;entryX=0.5;entryY=0;entryDx=0;entryDy=0;" edge="1" parent="1" source="fGX5bED9PHSFNP7jN1Jc-23" target="fGX5bED9PHSFNP7jN1Jc-1">
          <mxGeometry width="50" height="50" relative="1" as="geometry">
            <mxPoint x="-495" y="2169.5" as="sourcePoint" />
            <mxPoint x="-550" y="2069.5" as="targetPoint" />
          </mxGeometry>
        </mxCell>
        <mxCell id="fGX5bED9PHSFNP7jN1Jc-33" value="" style="endArrow=none;html=1;rounded=0;exitX=0.5;exitY=1;exitDx=0;exitDy=0;entryX=0.5;entryY=0;entryDx=0;entryDy=0;" edge="1" parent="1" source="fGX5bED9PHSFNP7jN1Jc-24" target="fGX5bED9PHSFNP7jN1Jc-1">
          <mxGeometry width="50" height="50" relative="1" as="geometry">
            <mxPoint x="-395" y="2149.5" as="sourcePoint" />
            <mxPoint x="-550" y="2069.5" as="targetPoint" />
          </mxGeometry>
        </mxCell>
        <mxCell id="fGX5bED9PHSFNP7jN1Jc-34" value="" style="endArrow=none;html=1;rounded=0;exitX=1;exitY=0.5;exitDx=0;exitDy=0;entryX=0;entryY=0.5;entryDx=0;entryDy=0;" edge="1" parent="1" source="fGX5bED9PHSFNP7jN1Jc-1" target="uhs0hdpgMSpCMbtizzQa-3">
          <mxGeometry width="50" height="50" relative="1" as="geometry">
            <mxPoint x="-475" y="2029.25" as="sourcePoint" />
            <mxPoint x="-135" y="2028.25" as="targetPoint" />
          </mxGeometry>
        </mxCell>
        <mxCell id="fGX5bED9PHSFNP7jN1Jc-35" value="recieves" style="rhombus;whiteSpace=wrap;html=1;" vertex="1" parent="1">
          <mxGeometry x="-280" y="1990" width="80" height="80" as="geometry" />
        </mxCell>
        <mxCell id="fGX5bED9PHSFNP7jN1Jc-36" value="&lt;font style=&quot;font-size: 18px;&quot;&gt;&lt;b&gt;1&lt;/b&gt;&lt;/font&gt;" style="text;html=1;align=center;verticalAlign=middle;whiteSpace=wrap;rounded=0;" vertex="1" parent="1">
          <mxGeometry x="-215" y="1999.5" width="60" height="30" as="geometry" />
        </mxCell>
        <mxCell id="fGX5bED9PHSFNP7jN1Jc-37" value="&lt;b&gt;&lt;font style=&quot;font-size: 18px;&quot;&gt;n&lt;/font&gt;&lt;/b&gt;" style="text;html=1;align=center;verticalAlign=middle;whiteSpace=wrap;rounded=0;" vertex="1" parent="1">
          <mxGeometry x="-325" y="1999.5" width="60" height="30" as="geometry" />
        </mxCell>
        <mxCell id="fGX5bED9PHSFNP7jN1Jc-87" value="ADMIN ACCOUNT" style="rounded=0;whiteSpace=wrap;html=1;" vertex="1" parent="1">
          <mxGeometry x="24" y="2400" width="120" height="60" as="geometry" />
        </mxCell>
        <mxCell id="fGX5bED9PHSFNP7jN1Jc-88" value="&lt;u&gt;AdAccountID&lt;/u&gt;" style="ellipse;whiteSpace=wrap;html=1;" vertex="1" parent="1">
          <mxGeometry x="-125" y="2520" width="70" height="50" as="geometry" />
        </mxCell>
        <mxCell id="fGX5bED9PHSFNP7jN1Jc-89" value="Username" style="ellipse;whiteSpace=wrap;html=1;" vertex="1" parent="1">
          <mxGeometry x="-14.5" y="2520" width="79" height="50" as="geometry" />
        </mxCell>
        <mxCell id="fGX5bED9PHSFNP7jN1Jc-90" value="Password" style="ellipse;whiteSpace=wrap;html=1;" vertex="1" parent="1">
          <mxGeometry x="105" y="2520" width="70" height="50" as="geometry" />
        </mxCell>
        <mxCell id="fGX5bED9PHSFNP7jN1Jc-91" value="" style="endArrow=none;html=1;rounded=0;entryX=0.5;entryY=1;entryDx=0;entryDy=0;exitX=0.5;exitY=0;exitDx=0;exitDy=0;" edge="1" parent="1" source="fGX5bED9PHSFNP7jN1Jc-89" target="fGX5bED9PHSFNP7jN1Jc-87">
          <mxGeometry width="50" height="50" relative="1" as="geometry">
            <mxPoint x="84" y="2530" as="sourcePoint" />
            <mxPoint x="84" y="2480" as="targetPoint" />
          </mxGeometry>
        </mxCell>
        <mxCell id="fGX5bED9PHSFNP7jN1Jc-92" value="" style="endArrow=none;html=1;rounded=0;entryX=0.5;entryY=1;entryDx=0;entryDy=0;exitX=0.5;exitY=0;exitDx=0;exitDy=0;" edge="1" parent="1" source="fGX5bED9PHSFNP7jN1Jc-88" target="fGX5bED9PHSFNP7jN1Jc-87">
          <mxGeometry width="50" height="50" relative="1" as="geometry">
            <mxPoint x="94" y="2540" as="sourcePoint" />
            <mxPoint x="94" y="2470" as="targetPoint" />
          </mxGeometry>
        </mxCell>
        <mxCell id="fGX5bED9PHSFNP7jN1Jc-93" value="" style="endArrow=none;html=1;rounded=0;exitX=0.5;exitY=0;exitDx=0;exitDy=0;" edge="1" parent="1" source="fGX5bED9PHSFNP7jN1Jc-90">
          <mxGeometry width="50" height="50" relative="1" as="geometry">
            <mxPoint x="49" y="2540" as="sourcePoint" />
            <mxPoint x="84" y="2460" as="targetPoint" />
          </mxGeometry>
        </mxCell>
        <mxCell id="fGX5bED9PHSFNP7jN1Jc-94" value="Department" style="ellipse;whiteSpace=wrap;html=1;" vertex="1" parent="1">
          <mxGeometry x="215" y="2520" width="70" height="50" as="geometry" />
        </mxCell>
        <mxCell id="fGX5bED9PHSFNP7jN1Jc-95" value="" style="endArrow=none;html=1;rounded=0;exitX=0.5;exitY=0;exitDx=0;exitDy=0;entryX=0.5;entryY=1;entryDx=0;entryDy=0;" edge="1" parent="1" source="fGX5bED9PHSFNP7jN1Jc-94" target="fGX5bED9PHSFNP7jN1Jc-87">
          <mxGeometry width="50" height="50" relative="1" as="geometry">
            <mxPoint x="150" y="2530" as="sourcePoint" />
            <mxPoint x="94" y="2470" as="targetPoint" />
          </mxGeometry>
        </mxCell>
        <mxCell id="fGX5bED9PHSFNP7jN1Jc-96" value="" style="endArrow=none;html=1;rounded=0;exitX=1;exitY=0.5;exitDx=0;exitDy=0;entryX=0;entryY=0.5;entryDx=0;entryDy=0;" edge="1" parent="1" source="fGX5bED9PHSFNP7jN1Jc-122" target="fGX5bED9PHSFNP7jN1Jc-87">
          <mxGeometry width="50" height="50" relative="1" as="geometry">
            <mxPoint x="-480" y="2430" as="sourcePoint" />
            <mxPoint x="5" y="2149.13" as="targetPoint" />
          </mxGeometry>
        </mxCell>
        <mxCell id="fGX5bED9PHSFNP7jN1Jc-97" value="recieves" style="rhombus;whiteSpace=wrap;html=1;" vertex="1" parent="1">
          <mxGeometry x="-235" y="2390" width="80" height="80" as="geometry" />
        </mxCell>
        <mxCell id="fGX5bED9PHSFNP7jN1Jc-98" value="&lt;font style=&quot;font-size: 18px;&quot;&gt;&lt;b&gt;1&lt;/b&gt;&lt;/font&gt;" style="text;html=1;align=center;verticalAlign=middle;whiteSpace=wrap;rounded=0;" vertex="1" parent="1">
          <mxGeometry x="-170" y="2400" width="60" height="30" as="geometry" />
        </mxCell>
        <mxCell id="fGX5bED9PHSFNP7jN1Jc-99" value="&lt;b&gt;&lt;font style=&quot;font-size: 18px;&quot;&gt;n&lt;/font&gt;&lt;/b&gt;" style="text;html=1;align=center;verticalAlign=middle;whiteSpace=wrap;rounded=0;" vertex="1" parent="1">
          <mxGeometry x="-285" y="2400" width="60" height="30" as="geometry" />
        </mxCell>
        <mxCell id="fGX5bED9PHSFNP7jN1Jc-100" value="Date" style="shape=partialRectangle;connectable=0;fillColor=none;top=0;left=0;bottom=0;right=0;align=left;spacingLeft=6;overflow=hidden;whiteSpace=wrap;html=1;" vertex="1" parent="1">
          <mxGeometry x="-380" y="591" width="150" height="30" as="geometry">
            <mxRectangle width="150" height="30" as="alternateBounds" />
          </mxGeometry>
        </mxCell>
        <mxCell id="fGX5bED9PHSFNP7jN1Jc-101" value="ADMIN NOTIFICATION" style="shape=table;startSize=30;container=1;collapsible=1;childLayout=tableLayout;fixedRows=1;rowLines=0;fontStyle=1;align=center;resizeLast=1;html=1;fillColor=#FFFFFF;" vertex="1" parent="1">
          <mxGeometry x="-750" y="880" width="180" height="290" as="geometry" />
        </mxCell>
        <mxCell id="fGX5bED9PHSFNP7jN1Jc-102" value="" style="shape=tableRow;horizontal=0;startSize=0;swimlaneHead=0;swimlaneBody=0;fillColor=none;collapsible=0;dropTarget=0;points=[[0,0.5],[1,0.5]];portConstraint=eastwest;top=0;left=0;right=0;bottom=1;" vertex="1" parent="fGX5bED9PHSFNP7jN1Jc-101">
          <mxGeometry y="30" width="180" height="30" as="geometry" />
        </mxCell>
        <mxCell id="fGX5bED9PHSFNP7jN1Jc-103" value="PK" style="shape=partialRectangle;connectable=0;fillColor=none;top=0;left=0;bottom=0;right=0;fontStyle=1;overflow=hidden;whiteSpace=wrap;html=1;" vertex="1" parent="fGX5bED9PHSFNP7jN1Jc-102">
          <mxGeometry width="30" height="30" as="geometry">
            <mxRectangle width="30" height="30" as="alternateBounds" />
          </mxGeometry>
        </mxCell>
        <mxCell id="fGX5bED9PHSFNP7jN1Jc-104" value="NotiID" style="shape=partialRectangle;connectable=0;fillColor=none;top=0;left=0;bottom=0;right=0;align=left;spacingLeft=6;fontStyle=5;overflow=hidden;whiteSpace=wrap;html=1;" vertex="1" parent="fGX5bED9PHSFNP7jN1Jc-102">
          <mxGeometry x="30" width="150" height="30" as="geometry">
            <mxRectangle width="150" height="30" as="alternateBounds" />
          </mxGeometry>
        </mxCell>
        <mxCell id="fGX5bED9PHSFNP7jN1Jc-105" value="" style="shape=tableRow;horizontal=0;startSize=0;swimlaneHead=0;swimlaneBody=0;fillColor=none;collapsible=0;dropTarget=0;points=[[0,0.5],[1,0.5]];portConstraint=eastwest;top=0;left=0;right=0;bottom=0;" vertex="1" parent="fGX5bED9PHSFNP7jN1Jc-101">
          <mxGeometry y="60" width="180" height="30" as="geometry" />
        </mxCell>
        <mxCell id="fGX5bED9PHSFNP7jN1Jc-106" value="" style="shape=partialRectangle;connectable=0;fillColor=none;top=0;left=0;bottom=0;right=0;editable=1;overflow=hidden;whiteSpace=wrap;html=1;" vertex="1" parent="fGX5bED9PHSFNP7jN1Jc-105">
          <mxGeometry width="30" height="30" as="geometry">
            <mxRectangle width="30" height="30" as="alternateBounds" />
          </mxGeometry>
        </mxCell>
        <mxCell id="fGX5bED9PHSFNP7jN1Jc-107" value="AdAccountID" style="shape=partialRectangle;connectable=0;fillColor=none;top=0;left=0;bottom=0;right=0;align=left;spacingLeft=6;overflow=hidden;whiteSpace=wrap;html=1;" vertex="1" parent="fGX5bED9PHSFNP7jN1Jc-105">
          <mxGeometry x="30" width="150" height="30" as="geometry">
            <mxRectangle width="150" height="30" as="alternateBounds" />
          </mxGeometry>
        </mxCell>
        <mxCell id="fGX5bED9PHSFNP7jN1Jc-108" value="" style="shape=tableRow;horizontal=0;startSize=0;swimlaneHead=0;swimlaneBody=0;fillColor=none;collapsible=0;dropTarget=0;points=[[0,0.5],[1,0.5]];portConstraint=eastwest;top=0;left=0;right=0;bottom=0;" vertex="1" parent="fGX5bED9PHSFNP7jN1Jc-101">
          <mxGeometry y="90" width="180" height="30" as="geometry" />
        </mxCell>
        <mxCell id="fGX5bED9PHSFNP7jN1Jc-109" value="" style="shape=partialRectangle;connectable=0;fillColor=none;top=0;left=0;bottom=0;right=0;editable=1;overflow=hidden;whiteSpace=wrap;html=1;" vertex="1" parent="fGX5bED9PHSFNP7jN1Jc-108">
          <mxGeometry width="30" height="30" as="geometry">
            <mxRectangle width="30" height="30" as="alternateBounds" />
          </mxGeometry>
        </mxCell>
        <mxCell id="fGX5bED9PHSFNP7jN1Jc-110" value="Title" style="shape=partialRectangle;connectable=0;fillColor=none;top=0;left=0;bottom=0;right=0;align=left;spacingLeft=6;overflow=hidden;whiteSpace=wrap;html=1;" vertex="1" parent="fGX5bED9PHSFNP7jN1Jc-108">
          <mxGeometry x="30" width="150" height="30" as="geometry">
            <mxRectangle width="150" height="30" as="alternateBounds" />
          </mxGeometry>
        </mxCell>
        <mxCell id="fGX5bED9PHSFNP7jN1Jc-111" value="" style="shape=tableRow;horizontal=0;startSize=0;swimlaneHead=0;swimlaneBody=0;fillColor=none;collapsible=0;dropTarget=0;points=[[0,0.5],[1,0.5]];portConstraint=eastwest;top=0;left=0;right=0;bottom=0;" vertex="1" parent="fGX5bED9PHSFNP7jN1Jc-101">
          <mxGeometry y="120" width="180" height="30" as="geometry" />
        </mxCell>
        <mxCell id="fGX5bED9PHSFNP7jN1Jc-112" value="" style="shape=partialRectangle;connectable=0;fillColor=none;top=0;left=0;bottom=0;right=0;editable=1;overflow=hidden;whiteSpace=wrap;html=1;" vertex="1" parent="fGX5bED9PHSFNP7jN1Jc-111">
          <mxGeometry width="30" height="30" as="geometry">
            <mxRectangle width="30" height="30" as="alternateBounds" />
          </mxGeometry>
        </mxCell>
        <mxCell id="fGX5bED9PHSFNP7jN1Jc-113" value="NotiType" style="shape=partialRectangle;connectable=0;fillColor=none;top=0;left=0;bottom=0;right=0;align=left;spacingLeft=6;overflow=hidden;whiteSpace=wrap;html=1;" vertex="1" parent="fGX5bED9PHSFNP7jN1Jc-111">
          <mxGeometry x="30" width="150" height="30" as="geometry">
            <mxRectangle width="150" height="30" as="alternateBounds" />
          </mxGeometry>
        </mxCell>
        <mxCell id="fGX5bED9PHSFNP7jN1Jc-114" value="Description" style="shape=partialRectangle;connectable=0;fillColor=none;top=0;left=0;bottom=0;right=0;align=left;spacingLeft=6;overflow=hidden;whiteSpace=wrap;html=1;" vertex="1" parent="1">
          <mxGeometry x="-720" y="1030" width="150" height="30" as="geometry">
            <mxRectangle width="150" height="30" as="alternateBounds" />
          </mxGeometry>
        </mxCell>
        <mxCell id="fGX5bED9PHSFNP7jN1Jc-115" value="Creator" style="shape=partialRectangle;connectable=0;fillColor=none;top=0;left=0;bottom=0;right=0;align=left;spacingLeft=6;overflow=hidden;whiteSpace=wrap;html=1;" vertex="1" parent="1">
          <mxGeometry x="-720" y="1061" width="150" height="30" as="geometry">
            <mxRectangle width="150" height="30" as="alternateBounds" />
          </mxGeometry>
        </mxCell>
        <mxCell id="fGX5bED9PHSFNP7jN1Jc-116" value="Time" style="shape=partialRectangle;connectable=0;fillColor=none;top=0;left=0;bottom=0;right=0;align=left;spacingLeft=6;overflow=hidden;whiteSpace=wrap;html=1;" vertex="1" parent="1">
          <mxGeometry x="-720" y="1091" width="150" height="30" as="geometry">
            <mxRectangle width="150" height="30" as="alternateBounds" />
          </mxGeometry>
        </mxCell>
        <mxCell id="fGX5bED9PHSFNP7jN1Jc-117" value="FK1" style="shape=partialRectangle;connectable=0;fillColor=none;top=0;left=0;bottom=0;right=0;fontStyle=1;overflow=hidden;whiteSpace=wrap;html=1;" vertex="1" parent="1">
          <mxGeometry x="-750" y="940" width="30" height="30" as="geometry">
            <mxRectangle width="30" height="30" as="alternateBounds" />
          </mxGeometry>
        </mxCell>
        <mxCell id="fGX5bED9PHSFNP7jN1Jc-118" value="Date" style="shape=partialRectangle;connectable=0;fillColor=none;top=0;left=0;bottom=0;right=0;align=left;spacingLeft=6;overflow=hidden;whiteSpace=wrap;html=1;" vertex="1" parent="1">
          <mxGeometry x="-720" y="1121" width="150" height="30" as="geometry">
            <mxRectangle width="150" height="30" as="alternateBounds" />
          </mxGeometry>
        </mxCell>
        <mxCell id="fGX5bED9PHSFNP7jN1Jc-119" value="NotiType" style="ellipse;whiteSpace=wrap;html=1;" vertex="1" parent="1">
          <mxGeometry x="-550" y="2150" width="90" height="50" as="geometry" />
        </mxCell>
        <mxCell id="fGX5bED9PHSFNP7jN1Jc-120" value="" style="endArrow=none;html=1;rounded=0;exitX=0.5;exitY=0;exitDx=0;exitDy=0;entryX=0.5;entryY=1;entryDx=0;entryDy=0;" edge="1" parent="1" source="fGX5bED9PHSFNP7jN1Jc-119" target="fGX5bED9PHSFNP7jN1Jc-1">
          <mxGeometry width="50" height="50" relative="1" as="geometry">
            <mxPoint x="-550" y="2175" as="sourcePoint" />
            <mxPoint x="-550" y="2070" as="targetPoint" />
          </mxGeometry>
        </mxCell>
        <mxCell id="fGX5bED9PHSFNP7jN1Jc-122" value="ADMIN NOTIFICATION" style="rounded=0;whiteSpace=wrap;html=1;" vertex="1" parent="1">
          <mxGeometry x="-605" y="2400" width="120" height="60" as="geometry" />
        </mxCell>
        <mxCell id="fGX5bED9PHSFNP7jN1Jc-123" value="&lt;u&gt;NotiID&lt;/u&gt;" style="ellipse;whiteSpace=wrap;html=1;" vertex="1" parent="1">
          <mxGeometry x="-715" y="2527.5" width="70" height="50" as="geometry" />
        </mxCell>
        <mxCell id="fGX5bED9PHSFNP7jN1Jc-124" value="Title" style="ellipse;whiteSpace=wrap;html=1;" vertex="1" parent="1">
          <mxGeometry x="-635" y="2547.5" width="90" height="50" as="geometry" />
        </mxCell>
        <mxCell id="fGX5bED9PHSFNP7jN1Jc-125" value="Description" style="ellipse;whiteSpace=wrap;html=1;" vertex="1" parent="1">
          <mxGeometry x="-440" y="2527.5" width="90" height="50" as="geometry" />
        </mxCell>
        <mxCell id="fGX5bED9PHSFNP7jN1Jc-126" value="Creator" style="ellipse;whiteSpace=wrap;html=1;" vertex="1" parent="1">
          <mxGeometry x="-715" y="2287.5" width="90" height="50" as="geometry" />
        </mxCell>
        <mxCell id="fGX5bED9PHSFNP7jN1Jc-127" value="Time" style="ellipse;whiteSpace=wrap;html=1;" vertex="1" parent="1">
          <mxGeometry x="-600" y="2262.5" width="90" height="50" as="geometry" />
        </mxCell>
        <mxCell id="fGX5bED9PHSFNP7jN1Jc-128" value="Date" style="ellipse;whiteSpace=wrap;html=1;" vertex="1" parent="1">
          <mxGeometry x="-480" y="2278" width="90" height="50" as="geometry" />
        </mxCell>
        <mxCell id="fGX5bED9PHSFNP7jN1Jc-129" value="" style="endArrow=none;html=1;rounded=0;entryX=0.5;entryY=1;entryDx=0;entryDy=0;exitX=0.5;exitY=0;exitDx=0;exitDy=0;" edge="1" parent="1" source="fGX5bED9PHSFNP7jN1Jc-123" target="fGX5bED9PHSFNP7jN1Jc-122">
          <mxGeometry width="50" height="50" relative="1" as="geometry">
            <mxPoint x="-615" y="2507" as="sourcePoint" />
            <mxPoint x="-565" y="2457" as="targetPoint" />
          </mxGeometry>
        </mxCell>
        <mxCell id="fGX5bED9PHSFNP7jN1Jc-130" value="" style="endArrow=none;html=1;rounded=0;exitX=0.5;exitY=0;exitDx=0;exitDy=0;" edge="1" parent="1" source="fGX5bED9PHSFNP7jN1Jc-124">
          <mxGeometry width="50" height="50" relative="1" as="geometry">
            <mxPoint x="-775" y="2517" as="sourcePoint" />
            <mxPoint x="-545" y="2460" as="targetPoint" />
          </mxGeometry>
        </mxCell>
        <mxCell id="fGX5bED9PHSFNP7jN1Jc-131" value="" style="endArrow=none;html=1;rounded=0;exitX=0.5;exitY=0;exitDx=0;exitDy=0;entryX=0.5;entryY=1;entryDx=0;entryDy=0;" edge="1" parent="1" source="fGX5bED9PHSFNP7jN1Jc-125" target="fGX5bED9PHSFNP7jN1Jc-122">
          <mxGeometry width="50" height="50" relative="1" as="geometry">
            <mxPoint x="-690" y="2547" as="sourcePoint" />
            <mxPoint x="-535" y="2467" as="targetPoint" />
          </mxGeometry>
        </mxCell>
        <mxCell id="fGX5bED9PHSFNP7jN1Jc-132" value="" style="endArrow=none;html=1;rounded=0;exitX=0.5;exitY=1;exitDx=0;exitDy=0;entryX=0.5;entryY=0;entryDx=0;entryDy=0;" edge="1" parent="1" source="fGX5bED9PHSFNP7jN1Jc-126" target="fGX5bED9PHSFNP7jN1Jc-122">
          <mxGeometry width="50" height="50" relative="1" as="geometry">
            <mxPoint x="-590" y="2567" as="sourcePoint" />
            <mxPoint x="-535" y="2467" as="targetPoint" />
          </mxGeometry>
        </mxCell>
        <mxCell id="fGX5bED9PHSFNP7jN1Jc-133" value="" style="endArrow=none;html=1;rounded=0;exitX=0.5;exitY=1;exitDx=0;exitDy=0;entryX=0.5;entryY=0;entryDx=0;entryDy=0;" edge="1" parent="1" source="fGX5bED9PHSFNP7jN1Jc-127" target="fGX5bED9PHSFNP7jN1Jc-122">
          <mxGeometry width="50" height="50" relative="1" as="geometry">
            <mxPoint x="-480" y="2567" as="sourcePoint" />
            <mxPoint x="-535" y="2467" as="targetPoint" />
          </mxGeometry>
        </mxCell>
        <mxCell id="fGX5bED9PHSFNP7jN1Jc-134" value="" style="endArrow=none;html=1;rounded=0;exitX=0.5;exitY=1;exitDx=0;exitDy=0;entryX=0.5;entryY=0;entryDx=0;entryDy=0;" edge="1" parent="1" source="fGX5bED9PHSFNP7jN1Jc-128" target="fGX5bED9PHSFNP7jN1Jc-122">
          <mxGeometry width="50" height="50" relative="1" as="geometry">
            <mxPoint x="-380" y="2547" as="sourcePoint" />
            <mxPoint x="-535" y="2467" as="targetPoint" />
          </mxGeometry>
        </mxCell>
        <mxCell id="fGX5bED9PHSFNP7jN1Jc-135" value="NotiType" style="ellipse;whiteSpace=wrap;html=1;" vertex="1" parent="1">
          <mxGeometry x="-535" y="2547.5" width="90" height="50" as="geometry" />
        </mxCell>
        <mxCell id="fGX5bED9PHSFNP7jN1Jc-136" value="" style="endArrow=none;html=1;rounded=0;exitX=0.5;exitY=0;exitDx=0;exitDy=0;entryX=0.5;entryY=1;entryDx=0;entryDy=0;" edge="1" parent="1" source="fGX5bED9PHSFNP7jN1Jc-135" target="fGX5bED9PHSFNP7jN1Jc-122">
          <mxGeometry width="50" height="50" relative="1" as="geometry">
            <mxPoint x="-535" y="2572.5" as="sourcePoint" />
            <mxPoint x="-535" y="2467.5" as="targetPoint" />
          </mxGeometry>
        </mxCell>
      </root>
    </mxGraphModel>
  </diagram>
</mxfile>
